<svg width="247" height="238" viewBox="0 0 247 238" fill="none" xmlns="http://www.w3.org/2000/svg">
<path d="M123.733 0.560005C123.505 0.93943 118.648 1.47063 112.881 1.69828C85.8659 2.91245 58.699 14.5988 39.6518 33.1907C35.4781 37.2126 34.2639 39.4133 36.0093 39.4133C36.4646 39.4133 39.8036 36.8332 43.4461 33.5701C50.5793 27.3475 60.9756 20.1384 68.2606 16.4959C84.5759 8.14853 106.279 3.29187 121.987 4.43015C124.34 4.58192 123.353 7.01025 118.8 11.6393C113.868 16.8753 111.288 21.2767 109.997 26.8922L109.163 30.6865L104.078 30.9141L98.9941 31.1418V45.7877C98.9941 63.9242 99.5253 65.8973 106.127 72.4234C111.895 78.1148 115.841 79.6325 124.567 79.6325C135.723 79.6325 143.235 75.307 147.712 66.2008C150.065 61.3441 150.141 60.8888 150.444 49.5819C150.748 38.275 150.748 37.8956 149.23 37.8956C147.788 37.8956 147.712 38.5027 147.409 49.0507C147.181 58.3087 146.878 60.8888 145.588 63.6966C143.235 68.7809 140.427 71.6645 135.267 74.2446C131.245 76.2936 129.804 76.5971 124.492 76.5971C117.207 76.5971 112.35 74.7 107.949 70.071C102.788 64.6072 102.03 61.9512 102.03 47.6848V35.0119L104.154 34.7084C108.024 34.1772 108.632 34.7084 109.922 40.0204C110.605 42.8281 112.274 46.9259 113.64 49.1266C116.524 53.9833 122.822 59.9023 125.023 59.9023C127.299 59.9023 135.116 51.5549 137.316 46.7742C138.379 44.6494 139.593 41.0069 140.048 38.8062L140.959 34.8602L145.967 34.7843C148.699 34.7084 151.962 34.7084 153.1 34.7084C159.93 34.8602 162.131 43.4352 156.136 46.243C153.632 47.3812 152.645 50.0372 154.694 50.0372C159.475 50.0372 162.965 45.4841 162.51 39.9445C161.903 33.2666 158.033 31.0659 147.03 31.0659H140.807L139.972 27.8028C138.454 21.732 135.798 17.0271 131.094 12.0187C128.438 9.21093 126.313 6.40318 126.313 5.64433C126.313 4.43015 126.844 4.35427 132.004 4.7337C153.404 6.55494 175.866 15.8888 193.547 30.3829C205.613 40.248 217.831 55.8804 224.205 69.6156C228.151 77.963 228.303 78.3425 229.289 78.646C233.387 80.0119 224.584 61.42 215.023 48.4436C195.976 22.7185 163.421 4.35427 131.928 1.69828C128.817 1.47063 126.085 0.93943 125.858 0.635887C125.326 -0.198853 124.264 -0.198853 123.733 0.560005ZM123.277 15.5094C123.277 18.6207 123.126 18.9243 121.456 18.9243C119.255 18.9243 118.345 19.9866 119.711 21.049C120.621 21.8079 121.077 21.9597 122.519 21.9597C122.974 21.9597 123.277 22.6426 123.277 23.4774C123.277 24.6915 122.746 24.9951 120.697 24.9951C117.358 24.9951 115.689 25.678 115.689 26.9681C115.689 27.7269 116.751 28.0305 119.483 28.0305C123.05 28.0305 123.277 28.1823 123.277 29.9276C123.277 31.673 123.05 31.8248 119.559 31.8248C117.434 31.8248 115.537 32.2801 115.006 32.8113C113.792 34.4049 114.778 34.8602 119.255 34.8602C123.05 34.8602 123.277 35.0119 123.277 36.6814C123.277 38.4268 122.898 38.5785 119.711 38.8062C116.979 38.958 115.992 39.3374 115.841 40.3239C115.613 41.4622 116.144 41.6898 119.407 41.6898C123.05 41.6898 123.277 41.8416 123.277 43.587C123.277 45.1047 122.898 45.4841 121.456 45.4841C119.711 45.4841 118.345 47.1536 119.255 48.0642C119.559 48.2919 120.546 48.5195 121.532 48.5195C123.126 48.5195 123.277 48.8231 123.277 52.0861V55.6527L120.166 52.6932C118.497 51.0237 116.068 47.4571 114.702 44.8011C112.653 40.5516 112.35 39.1097 112.274 33.7978C112.274 28.6376 112.578 26.8922 114.323 23.2497C116.448 18.7725 121.38 12.0946 122.594 12.0946C122.974 12.0946 123.277 13.6123 123.277 15.5094ZM130.335 15.2818C131.777 17.103 133.901 20.442 135.116 22.7185C136.937 26.2851 137.24 27.8028 137.24 33.3425C137.316 39.1097 137.089 40.3239 134.888 44.7253C133.522 47.4571 131.094 51.0237 129.424 52.6932L126.313 55.6527V52.162C126.313 48.899 126.465 48.5954 128.438 48.3678C129.652 48.216 130.487 47.6848 130.487 47.0018C130.487 46.3189 129.652 45.7877 128.438 45.6359C126.768 45.4082 126.313 44.9529 126.313 43.5111C126.313 41.8416 126.616 41.6898 130.183 41.6898C133.446 41.6898 133.977 41.4622 133.75 40.3239C133.598 39.3374 132.611 38.958 129.879 38.8062C126.692 38.5785 126.313 38.4268 126.313 36.6814C126.313 35.0119 126.54 34.8602 130.411 34.8602C134.584 34.8602 136.557 33.7219 134.584 32.5077C133.977 32.1283 131.928 31.8248 129.955 31.8248C126.616 31.8248 126.313 31.673 126.313 29.9276C126.313 28.1823 126.54 28.0305 130.107 28.0305C132.839 28.0305 133.901 27.7269 133.901 26.9681C133.901 25.678 132.232 24.9951 128.893 24.9951C126.844 24.9951 126.313 24.6915 126.313 23.4774C126.313 22.4909 126.844 21.9597 127.755 21.9597C129.348 21.9597 131.169 20.2143 130.335 19.4554C130.107 19.1519 129.045 18.9243 128.058 18.9243C126.465 18.9243 126.313 18.5448 126.313 15.5094C126.313 13.6123 126.616 12.0946 126.996 12.0946C127.375 12.0946 128.893 13.5364 130.335 15.2818Z" fill="#375A54"/>
<path d="M17.4172 54.5146C13.623 56.26 11.4982 58.5366 9.29749 63.3173C7.55213 67.0357 7.55213 67.5669 7.1727 103.537C6.79327 142.997 6.79327 142.921 2.61958 143.908C-0.264062 144.591 -0.415832 144.742 0.494791 147.171C1.4813 149.978 3.15078 150.965 7.09681 150.965C9.2216 150.965 10.7393 150.358 12.5606 148.916C17.4172 144.818 17.3413 145.273 17.7966 104.144L18.1761 66.8839L19.9973 64.9109C22.8051 61.9514 28.0412 62.4067 29.6348 65.7457C30.0142 66.5045 30.4695 85.8553 30.6971 108.849L31.0766 150.585L34.2638 150.813C36.0091 150.965 38.3616 150.585 39.424 150.054L41.397 148.992L41.3211 108.924C41.3211 73.4101 41.397 68.6293 42.5353 66.2769C44.5083 62.1032 49.4408 61.7237 52.2486 65.4421C53.8422 67.5669 53.8422 68.4775 54.2216 105.282C54.601 140.265 54.6769 143.225 56.0428 145.881C56.8017 147.474 58.1676 149.22 59.0783 149.827C61.5825 151.648 65.9079 151.268 68.5639 148.992C71.4476 146.639 71.4476 145.956 69.0192 143.983C65.225 141.024 65.225 141.403 64.8455 103.537C64.4661 72.5753 64.2385 67.4151 63.1002 64.6074C61.1272 59.4472 58.8506 56.8671 54.6769 54.8941C48.4543 52.0104 41.5487 52.7693 37.9821 56.7153L36.5403 58.3848L34.3396 56.4877C30.166 52.921 22.6533 52.0863 17.4172 54.5146Z" fill="#375A54"/>
<path d="M165.47 55.9564C165.318 56.26 165.394 57.0188 165.85 57.6259C166.229 58.233 166.533 64.4556 166.533 71.437V84.1858H159.779C152.494 84.1858 151.963 84.4893 152.645 88.2077C153.328 91.6984 156.212 93.292 161.752 93.292H166.608L166.381 113.174L166.153 133.132L163.952 137.078C162.586 139.658 160.993 141.327 159.475 141.934C157.426 142.769 157.047 142.693 155.833 141.176C154.543 139.582 154.391 137.837 154.391 121.825C154.391 106.42 154.163 103.916 152.949 101.26C150.672 96.3274 148.851 95.1891 143.463 95.1891C139.366 95.1891 138.303 95.4927 135.799 97.3898C134.205 98.604 131.853 101.336 130.563 103.385L128.21 107.255L127.983 103.385C127.831 100.577 127.3 99.1352 126.086 98.0728C124.113 96.2515 121.229 95.4927 119.18 96.2515C117.89 96.7068 117.814 97.9969 117.662 112.643C117.586 128.351 117.586 128.655 115.538 132.373C114.475 134.422 112.806 136.926 111.971 137.837C106.507 143.68 96.8698 143.832 91.6337 138.292C90.2678 136.85 89.1295 135.257 89.1295 134.801C89.1295 134.27 90.5713 133.284 92.3925 132.525C106.28 126.833 113.489 106.42 104.61 97.7692C102.106 95.3409 101.651 95.1891 96.718 95.1891C92.1649 95.1891 91.1025 95.4927 88.2947 97.4657C84.0452 100.425 80.6303 105.054 78.4296 110.518C76.9119 114.236 76.6084 116.285 76.6084 124.026C76.6084 132.449 76.7602 133.435 78.7332 137.457C81.3133 142.769 87.0806 148.081 91.9372 149.751C99.1463 152.255 108.708 150.965 115.158 146.715C117.89 144.97 117.966 144.894 117.966 146.412C117.966 147.246 118.649 148.612 119.484 149.447C121.381 151.344 126.693 151.572 127.376 149.751C127.603 149.068 127.831 143.149 127.831 136.547C127.831 123.494 128.817 118.638 132.612 112.036C134.509 108.773 140.124 103.157 141.414 103.157C143.312 103.157 143.615 106.117 143.919 123.646C144.222 144.439 144.602 146.488 149.458 149.447C154.011 152.255 161.979 151.041 166.153 146.867L168.05 144.97L169.34 146.867C171.086 149.599 174.197 150.965 178.674 150.965C183.379 150.965 186.718 149.675 189.753 146.639L191.954 144.363L193.32 146.184C197.266 151.344 207.662 152.634 213.05 148.461C214.568 147.322 215.934 146.412 216.237 146.412C216.465 146.412 217.603 147.246 218.742 148.309C222.384 151.724 230.428 151.875 235.209 148.612C240.445 145.046 247.047 132.297 245.909 127.896C245.301 125.391 241.963 123.115 240.369 124.101C239.686 124.481 238.472 127.44 237.561 130.628C235.057 139.127 231.642 143.376 228 142.238C225.268 141.403 224.812 139.127 224.888 127.82C225.04 111.125 224.433 109.152 218.438 108.09C214.264 107.331 214.113 107.786 214.264 122.811L214.416 136.623L211.305 139.734C208.649 142.39 207.966 142.769 205.841 142.314C200.681 141.327 198.784 137.154 199.315 128.275C199.998 118.031 204.399 110.063 211.836 105.661C214.416 104.144 216.617 103.612 220.866 103.309C226.027 103.005 226.558 102.778 226.937 101.184C227.544 98.8316 225.495 95.7203 222.991 95.1133C219.576 94.2026 212.898 95.4168 207.814 97.7692C196.128 103.233 188.539 116.589 188.539 131.842C188.539 135.712 187.097 138.823 184.29 141.024C181.861 142.997 180.875 142.997 178.75 141.252C177.156 139.961 177.081 139.506 177.081 118.714C177.156 107.027 177.156 96.5551 177.156 95.3409V93.292H189.981C204.248 93.292 204.779 93.1402 205.689 88.3595C206.524 83.9581 206.524 83.9581 194.534 84.1099C188.539 84.1858 182.165 84.4134 180.42 84.6411C176.625 85.1723 177.005 86.69 177.156 71.6647C177.232 61.8755 176.473 58.0812 174.349 56.4117C172.907 55.3493 166.077 54.9699 165.47 55.9564ZM97.4769 105.054C98.9946 106.875 97.9322 113.933 95.428 118.486C94.2897 120.611 91.9372 123.418 90.2678 124.633L87.2323 126.833L87.0047 123.95C86.4735 117.879 88.9018 108.773 92.0131 105.206C93.4549 103.612 96.1868 103.537 97.4769 105.054Z" fill="#375A54"/>
<path d="M13.6993 165.307C13.0164 166.369 19.7702 179.422 24.7786 186.934C31.153 196.344 46.33 211.369 55.7398 217.668C90.7229 240.889 133.978 244.304 172.072 227.002C189.753 218.958 208.8 202.719 219.576 186.631C225.419 177.904 228.986 170.923 228.455 169.405C227.772 167.735 226.254 169.253 223.75 173.958C207.89 204.464 176.701 227.078 141.87 233.376C131.777 235.197 112.806 235.197 102.789 233.452C66.0602 226.85 34.416 203.174 18.7837 170.619C16.1277 165.079 14.6858 163.638 13.6993 165.307Z" fill="#375A54"/>
<path d="M61.0518 167.584C61.0518 172.213 77.3671 184.961 90.4953 190.653C103.548 196.192 121.532 198.014 135.419 195.13C144.829 193.157 153.252 189.894 160.993 185.113C167.443 181.167 180.192 169.784 180.192 168.039C180.192 165.535 178.37 166.521 172.831 171.833C163.193 181.243 152.569 187.466 139.972 191.184C131.853 193.536 115.31 194.144 106.659 192.398C91.9371 189.439 80.2507 183.292 68.9438 172.744C64.9978 169.101 61.6588 166.142 61.4312 166.142C61.2035 166.142 61.0518 166.749 61.0518 167.584Z" fill="#375A54"/>
<path d="M190.968 183.064C187.78 186.327 186.87 188.907 188.843 188.907C190.133 188.907 196.128 182.305 196.128 180.864C196.128 178.966 194.231 179.801 190.968 183.064Z" fill="#375A54"/>
<path d="M47.0123 181.319C46.4052 182.381 52.7796 189.666 54.3732 189.666C56.1944 189.666 55.6632 188.073 52.3243 184.127C49.3647 180.636 47.9229 179.801 47.0123 181.319Z" fill="#375A54"/>
<path d="M177.915 190.956C177.915 191.26 178.597 192.171 179.432 193.081L180.95 194.675L179.053 196.496L177.156 198.241L175.41 196.648C173.361 194.751 172.603 194.523 172.603 195.965C172.603 197.179 179.584 204.085 180.798 204.085C181.405 204.085 181.102 203.25 180.039 201.808L178.37 199.531L180.191 197.634L182.012 195.737L183.606 197.255C184.517 198.09 185.731 198.773 186.262 198.773C186.869 198.773 185.503 196.876 183.226 194.599C179.356 190.729 177.915 189.666 177.915 190.956Z" fill="#375A54"/>
<path d="M60.292 194.371C58.3949 196.496 58.2431 201.125 60.1403 202.794C60.8232 203.401 62.3409 204.236 63.5551 204.464C65.1487 204.919 65.604 204.767 65.604 203.781C65.604 203.098 64.9969 202.567 64.1622 202.567C60.6715 202.567 59.0779 197.862 61.658 195.509C63.631 193.688 65.9834 193.916 67.7288 196.116C69.4741 198.317 70.1571 198.545 70.1571 196.875C70.1571 193.081 63.1757 191.26 60.292 194.371Z" fill="#375A54"/>
<path d="M168.354 198.773C166.305 199.607 164.256 202.415 164.256 204.464C164.256 206.589 166.305 209.321 168.581 210.231C171.844 211.445 177.384 207.879 175.942 205.526C175.715 205.147 174.804 205.678 173.969 206.741C170.706 210.99 164.408 207.575 166.684 202.795C167.367 201.353 168.354 200.594 169.795 200.442C171.01 200.29 171.844 199.835 171.617 199.304C171.237 198.166 170.251 198.014 168.354 198.773Z" fill="#375A54"/>
<path d="M71.6755 202.263C69.399 204.236 67.426 206.209 67.2742 206.816C66.9707 208.107 68.033 208.182 69.1713 207.044C70.689 205.526 74.711 207.651 74.711 209.852C74.711 213.039 76.001 211.825 76.5322 208.182C77.1393 203.402 77.1393 198.773 76.4563 198.773C76.0769 198.773 73.9521 200.366 71.6755 202.263ZM75.1663 203.857C75.0145 205.071 74.7868 206.058 74.7868 206.209C74.711 206.285 74.028 206.058 73.1932 205.602C71.5997 204.768 71.5997 204.768 73.345 203.326C75.6216 201.429 75.5457 201.429 75.1663 203.857Z" fill="#375A54"/>
<path d="M97.4008 203.022C96.566 204.085 96.6419 204.16 98.2355 203.933C99.222 203.857 100.133 203.25 100.36 202.719C100.74 201.429 98.615 201.58 97.4008 203.022Z" fill="#375A54"/>
<path d="M80.7815 207.879C79.0361 213.039 79.1879 216.606 80.9333 211.825C81.768 209.624 82.0716 209.397 84.3481 209.852C85.9417 210.155 86.8523 210.004 86.8523 209.472C86.8523 209.017 86.397 208.638 85.9417 208.638C83.9687 208.638 82.9063 207.348 83.4375 205.678C83.8928 204.16 84.0446 204.16 86.6247 205.223C89.8119 206.589 89.8877 206.589 89.8877 205.526C89.8877 204.768 85.3346 202.567 83.5893 202.567C83.0581 202.567 81.8439 204.919 80.7815 207.879Z" fill="#375A54"/>
<path d="M158.943 202.87C158.943 203.098 159.474 204.692 160.157 206.361C160.84 208.106 161.22 209.624 160.992 209.928C160.689 210.155 158.867 209.245 156.818 207.955C153.252 205.678 150.975 204.919 151.506 206.209C151.658 206.513 152.569 209.093 153.555 211.901C154.618 214.708 155.68 216.985 156.06 216.985C156.97 216.985 156.818 215.164 155.452 212.052C154.845 210.535 154.39 209.093 154.542 209.017C154.694 208.865 156.667 209.928 158.943 211.37C163.42 214.177 164.255 214.481 164.255 212.963C164.255 211.218 160.689 203.022 159.778 202.719C159.323 202.567 158.943 202.643 158.943 202.87Z" fill="#375A54"/>
<path d="M90.4191 211.066C89.6603 214.026 89.3567 216.757 89.6603 217.061C89.9638 217.365 91.7092 217.896 93.5304 218.199C97.4765 218.806 97.9318 217.365 93.9857 216.682C91.7851 216.226 91.3297 215.847 91.5574 214.481C91.7092 213.115 92.1645 212.887 94.2893 213.039C95.6552 213.191 96.7176 212.963 96.7176 212.508C96.7176 212.053 96.1105 211.673 95.4275 211.673C93.3028 211.673 92.0886 210.535 92.6198 209.093C92.9992 208.031 93.6822 207.879 96.0346 208.258C99.9048 208.941 99.9807 207.499 96.1864 206.437C94.5928 205.982 92.9233 205.602 92.468 205.602C92.0886 205.602 91.1021 208.031 90.4191 211.066Z" fill="#375A54"/>
<path d="M147.561 208.031C147.561 208.562 147.94 210.383 148.32 212.052C149.154 215.771 148.699 217.744 146.878 217.744C144.981 217.744 143.994 216.378 143.083 212.508C141.717 206.361 140.352 207.196 141.566 213.418C142.552 218.199 143.615 219.413 146.422 219.413C150.444 219.413 151.355 216.985 149.761 210.459C149.002 207.423 147.561 205.83 147.561 208.031Z" fill="#375A54"/>
<path d="M132.231 209.928C130.714 210.307 130.562 212.128 131.321 218.047C131.852 221.918 133.142 222.828 133.142 219.337C133.142 215.999 134.356 215.847 136.329 218.806C138.074 221.462 139.213 222.297 139.213 220.779C139.213 220.324 138.606 219.11 137.923 218.047C136.936 216.53 136.86 215.999 137.619 215.543C139.061 214.633 139.137 212.204 137.847 210.687C136.708 209.472 134.963 209.169 132.231 209.928ZM136.784 211.901C138.074 212.963 136.481 214.708 134.204 214.708C132.914 214.708 132.383 214.253 132.383 213.343C132.383 212.584 132.535 211.749 132.762 211.521C133.445 210.914 135.722 211.066 136.784 211.901Z" fill="#375A54"/>
<path d="M120.166 210.307C119.863 211.066 119.711 219.869 119.939 220.931C120.242 221.918 121.077 222.297 122.822 222.297C126.01 222.297 127.907 220.855 127.907 218.503C127.831 217.44 127.831 215.619 127.831 214.405C127.907 211.37 126.541 210.155 123.202 210.155C121.532 210.155 120.166 210.231 120.166 210.307ZM126.085 212.887C126.617 214.253 125.175 215.467 123.126 215.467C122.139 215.467 121.76 214.86 121.76 213.57C121.76 212.053 122.139 211.673 123.657 211.673C124.719 211.673 125.782 212.204 126.085 212.887ZM126.085 218.199C126.617 219.565 125.023 220.855 123.278 220.552C122.671 220.476 122.064 219.641 121.912 218.655C121.684 217.289 121.988 216.985 123.657 216.985C124.719 216.985 125.782 217.516 126.085 218.199Z" fill="#375A54"/>
<path d="M105.823 214.632C105.823 215.467 107.72 216.226 109.693 216.226C111.666 216.226 111.515 215.012 109.466 214.405C107.037 213.798 105.823 213.874 105.823 214.632Z" fill="#375A54"/>
</svg>
