<svg width="25" height="30" viewBox="0 0 25 30" fill="none" xmlns="http://www.w3.org/2000/svg">
<path d="M16.5308 25.1019H0.612176C0.27396 25.1019 0 24.8283 0 24.4901V4.28589C0 3.94733 0.274305 3.67371 0.612176 3.67371H21.4289C21.7671 3.67371 22.0414 3.94733 22.0414 4.28589V19.592C22.0414 19.7544 21.9768 19.9098 21.8618 20.0249L16.9637 24.9229C16.849 25.0376 16.6932 25.1019 16.5308 25.1019ZM1.22435 23.8775H16.2769L20.8164 19.338V4.89772H1.22435V23.8775Z" fill="#A2D6BB"/>
<path d="M1.22435 23.8775H16.2769L20.8164 19.338V4.89772H1.22435V23.8775Z" fill="#375A54"/>
<path d="M4.8984 8.57147C4.55984 8.57147 4.28588 8.29752 4.28588 7.95965C4.28588 7.63939 4.53047 7.37752 4.84347 7.34988C5.05455 7.17646 5.51023 6.12451 5.51023 4.28625C5.51023 2.59379 5.12434 1.5674 4.8984 1.28031C4.67177 1.5674 4.28588 2.59379 4.28588 4.28625C4.28588 4.62447 4.01157 4.89808 3.6737 4.89808C3.33548 4.89808 3.06152 4.62412 3.06152 4.28625C3.06152 2.15262 3.62983 0 4.8984 0C6.16662 0 6.73493 2.15262 6.73493 4.28625C6.73493 6.41919 6.16697 8.57147 4.8984 8.57147Z" fill="#A2D6BB"/>
<path d="M11.0207 8.57147C10.6825 8.57147 10.4086 8.29752 10.4086 7.95965C10.4086 7.63939 10.6535 7.37752 10.9662 7.34988C11.1779 7.17646 11.6333 6.12451 11.6333 4.28625C11.6333 2.59379 11.247 1.5674 11.0211 1.28031C10.7948 1.5674 10.4089 2.59379 10.4089 4.28625C10.4089 4.62447 10.1353 4.89808 9.79675 4.89808C9.45888 4.89808 9.18457 4.62412 9.18457 4.28625C9.18457 2.15262 9.75253 0 11.0214 0C12.2904 0 12.8583 2.15262 12.8583 4.28625C12.8576 6.41919 12.2893 8.57147 11.0207 8.57147Z" fill="#A2D6BB"/>
<path d="M17.1438 8.57147C16.8056 8.57147 16.5316 8.29752 16.5316 7.95965C16.5316 7.63939 16.7766 7.37752 17.0892 7.34988C17.3003 7.17646 17.7563 6.12451 17.7563 4.28625C17.7563 2.59379 17.3701 1.5674 17.1441 1.28031C16.9179 1.5674 16.532 2.59379 16.532 4.28625C16.532 4.62447 16.2577 4.89808 15.9198 4.89808C15.5816 4.89808 15.3076 4.62412 15.3076 4.28625C15.3076 2.15262 15.8759 0 17.1445 0C18.4134 0 18.9807 2.15262 18.9807 4.28625C18.9803 6.41919 18.4127 8.57147 17.1438 8.57147Z" fill="#A2D6BB"/>
<path d="M17.1437 10.408C15.7936 10.408 14.6943 9.30942 14.6943 7.95932C14.6943 6.60887 15.7936 5.51025 17.1437 5.51025C18.4938 5.51025 19.5924 6.60887 19.5924 7.95932C19.5924 9.30942 18.4938 10.408 17.1437 10.408ZM17.1437 6.73461C16.4683 6.73461 15.919 7.28392 15.919 7.95932C15.919 8.63402 16.4683 9.18331 17.1437 9.18331C17.8188 9.18331 18.3684 8.63402 18.3684 7.95932C18.3684 7.28392 17.8188 6.73461 17.1437 6.73461Z" fill="#A2D6BB"/>
<path d="M11.0213 10.408C9.67086 10.408 8.57227 9.30942 8.57227 7.95932C8.57227 6.60887 9.67121 5.51025 11.0213 5.51025C12.3714 5.51025 13.4707 6.60887 13.4707 7.95932C13.4703 9.30942 12.3714 10.408 11.0213 10.408ZM11.0213 6.73461C10.3459 6.73461 9.79662 7.28392 9.79662 7.95932C9.79662 8.63402 10.3459 9.18331 11.0213 9.18331C11.6967 9.18331 12.246 8.63402 12.246 7.95932C12.2457 7.28392 11.6967 6.73461 11.0213 6.73461Z" fill="#A2D6BB"/>
<path d="M4.89861 10.408C3.54782 10.408 2.44922 9.30942 2.44922 7.95932C2.44922 6.60887 3.54782 5.51025 4.89861 5.51025C6.24836 5.51025 7.3473 6.60887 7.3473 7.95932C7.34765 9.30942 6.24871 10.408 4.89861 10.408ZM4.89861 6.73461C4.22321 6.73461 3.67391 7.28392 3.67391 7.95932C3.67391 8.63402 4.22321 9.18331 4.89861 9.18331C5.57366 9.18331 6.12261 8.63402 6.12261 7.95932C6.12296 7.28392 5.57366 6.73461 4.89861 6.73461Z" fill="#A2D6BB"/>
<path d="M21.4289 30H0.612176C0.27396 30 0 29.7264 0 29.3882C0 29.05 0.274305 28.776 0.612176 28.776H21.4289C21.7671 28.776 22.0414 29.0503 22.0414 29.3882C22.0414 29.7264 21.7671 30 21.4289 30Z" fill="#A2D6BB"/>
<path d="M21.4289 27.5514H0.612176C0.27396 27.5514 0 27.2771 0 26.9392C0 26.6013 0.274305 26.327 0.612176 26.327H21.4289C21.7671 26.327 22.0414 26.6013 22.0414 26.9392C22.0414 27.2771 21.7671 27.5514 21.4289 27.5514Z" fill="#A2D6BB"/>
<path d="M16.5315 25.1019C16.4524 25.1019 16.3729 25.0871 16.2969 25.0556C16.0685 24.9606 15.9189 24.7375 15.9189 24.4898V19.5917C15.9189 19.2538 16.1933 18.9795 16.5311 18.9795H21.4292C21.6769 18.9795 21.9001 19.1287 21.9951 19.3578C22.0894 19.5865 22.0372 19.8501 21.8621 20.0249L16.964 24.923C16.8472 25.0401 16.6907 25.1019 16.5315 25.1019ZM17.1436 20.2042V23.0122L19.9513 20.2042H17.1436Z" fill="#A2D6BB"/>
<path d="M15.8343 17.6742C15.834 17.6742 15.8338 17.6742 15.8332 17.6742C15.7583 17.6739 15.6863 17.6438 15.6337 17.5905L12.8275 14.7503C12.7185 14.64 12.719 14.4623 12.8286 14.3526L20.1611 7.02033C20.2712 6.91021 20.4498 6.91021 20.5597 7.02033L23.3802 9.84047C23.4903 9.95059 23.4903 10.129 23.3802 10.2394L16.0337 17.5915C15.9809 17.6443 15.9093 17.6742 15.8343 17.6742ZM13.426 14.5533L15.8356 16.992L22.782 10.0399L20.3605 7.61851L13.426 14.5533Z" fill="#A2D6BB"/>
<path d="M13.426 14.5533L15.8356 16.992L22.782 10.0399L20.3605 7.61851L13.426 14.5533Z" fill="#375A54"/>
<path d="M23.1823 10.3218C23.1101 10.3218 23.0382 10.2943 22.983 10.2392L20.1627 7.41906C20.0525 7.30878 20.0525 7.13039 20.1627 7.02012L21.5726 5.61006C21.6829 5.49994 21.8614 5.49994 21.9715 5.61006L24.7918 8.43034C24.9018 8.5403 24.9018 8.71917 24.7918 8.82913L23.3817 10.2392C23.3268 10.2943 23.2546 10.3218 23.1823 10.3218ZM20.7612 7.21983L23.1825 9.64102L24.1938 8.6299L21.7724 6.20855L20.7612 7.21983Z" fill="#A2D6BB"/>
<path d="M20.7612 7.21983L23.1825 9.64102L24.1938 8.6299L21.7724 6.20855L20.7612 7.21983Z" fill="#375A54"/>
<path d="M11.3369 19.3464C11.2632 19.3464 11.191 19.3176 11.1372 19.2638C11.0591 19.1855 11.0338 19.0691 11.0728 18.9655L12.7648 14.4531C12.7987 14.3632 12.876 14.2967 12.9701 14.2765C13.0641 14.2564 13.1618 14.2856 13.2295 14.354L16.0356 17.1942C16.1031 17.2623 16.1312 17.3597 16.1106 17.4532C16.0899 17.5466 16.0232 17.6232 15.9334 17.6566L11.4353 19.3289C11.403 19.3409 11.3697 19.3464 11.3369 19.3464ZM13.138 15.064L11.8178 18.5847L15.3276 17.2799L13.138 15.064Z" fill="#A2D6BB"/>
<path d="M13.029 18.5004C13.028 18.5004 13.0269 18.5004 13.0257 18.5003C12.87 18.4985 12.7453 18.3707 12.747 18.2149C12.7499 18.0036 12.6676 17.8585 12.4889 17.7579C12.3312 17.6694 12.1616 17.6535 12.1598 17.6532C12.0045 17.6414 11.8893 17.5058 11.9012 17.3507C11.913 17.1954 12.0497 17.0795 12.2049 17.0911C12.592 17.1207 13.3213 17.3954 13.3111 18.2216C13.3092 18.3763 13.1832 18.5004 13.029 18.5004Z" fill="#A2D6BB"/>
<path d="M14.7196 14.8339C14.6474 14.8339 14.5751 14.8063 14.5201 14.7514C14.41 14.6413 14.41 14.4628 14.5201 14.3525L20.1604 8.71223C20.2705 8.60227 20.449 8.60227 20.559 8.71223C20.6693 8.82235 20.6693 9.00105 20.559 9.11117L14.919 14.7514C14.8638 14.8065 14.7916 14.8339 14.7196 14.8339Z" fill="#A2D6BB"/>
<path d="M15.8484 15.9622C15.7763 15.9622 15.7043 15.9346 15.6489 15.8795C15.5389 15.7694 15.5389 15.5908 15.6489 15.4807L21.2893 9.84028C21.3994 9.73032 21.578 9.73032 21.6881 9.84028C21.7984 9.9504 21.7984 10.129 21.6881 10.2392L16.0478 15.8795C15.9929 15.9346 15.9205 15.9622 15.8484 15.9622Z" fill="#A2D6BB"/>
<path d="M23.1805 8.91182C23.0881 8.91182 23.0004 8.86584 22.9479 8.78929C22.8305 8.65944 22.0518 7.89051 21.573 7.42091C21.4616 7.3119 21.4599 7.13337 21.569 7.02229C21.6782 6.9109 21.8566 6.90899 21.9678 7.01816C21.9713 7.0215 22.3263 7.36968 22.6759 7.71563C22.8815 7.91932 23.0453 8.08275 23.1629 8.2013C23.2332 8.27243 23.2881 8.32861 23.3257 8.36791C23.4029 8.44907 23.4905 8.54073 23.4554 8.69286C23.4332 8.78865 23.3627 8.86631 23.2697 8.89718C23.2402 8.90705 23.2101 8.91182 23.1805 8.91182Z" fill="#A2D6BB"/>
</svg>
