<svg width="286" height="42" viewBox="0 0 286 42" fill="none" xmlns="http://www.w3.org/2000/svg">
<path d="M156.215 14.3402C155.906 14.2119 155.837 14.4584 156.09 14.6772C157.174 15.6175 158.274 16.5024 159.323 17.4426C161.533 19.4233 163.458 21.6688 165.419 23.8743C167.724 26.4656 169.992 29.0878 172.362 31.6227C172.938 32.2384 173.482 32.8871 174.006 33.5469C174.272 33.8825 174.462 34.2961 174.188 34.719C173.911 35.1469 173.471 35.1284 173.049 35.0043C166.959 33.2165 160.887 31.4195 155.903 27.1686C152.757 24.4859 150.256 21.3219 148.243 17.7423C146.598 14.8194 145.107 11.8237 143.939 8.67406C143.897 8.56117 143.851 8.44726 143.791 8.34463C143.643 8.09422 143.579 7.69294 143.233 7.70731C142.905 7.72168 142.797 8.0973 142.693 8.36926C141.69 10.9945 140.505 13.5355 139.202 16.0243C137.472 19.3279 135.466 22.4436 132.834 25.1048C128.634 29.3495 123.538 32.0445 117.832 33.666C116.382 34.0786 114.948 34.5506 113.505 34.9878C113.083 35.1151 112.638 35.1633 112.338 34.7713C112.004 34.3341 112.228 33.9 112.495 33.5203C113.421 32.2077 114.611 31.1259 115.673 29.9314C118.816 26.3917 121.986 22.8747 125.172 19.373C126.801 17.5832 128.684 16.0684 130.564 14.5536C130.742 14.4093 130.549 14.2312 130.338 14.3224C129.814 14.5495 129.29 14.7775 128.762 14.997C122.29 17.693 115.57 19.4336 108.609 20.2474C105.702 20.5871 102.785 20.8283 99.8628 20.7411C95.496 20.6117 91.1528 20.1715 86.8198 19.5803C75.3081 18.007 64.0333 15.2043 52.6304 13.0696C47.8633 12.1768 43.0809 11.4214 38.2245 11.1238C35.2042 10.9391 32.1869 10.9185 29.1779 11.0201C25.3878 11.1484 21.6194 11.6492 17.8549 12.1378C12.4177 12.8428 7 13.6659 1.59357 14.5721C1.17795 14.6419 0.651459 14.686 0.541656 14.1462C0.406189 13.474 0.754089 12.7474 1.26926 12.5062C5.29843 10.6271 8.59482 7.53592 12.7071 5.77483C16.7835 4.02811 20.9677 2.7309 25.3263 1.98479C28.2091 1.49116 31.1257 1.32181 34.0424 1.1299C38.1147 0.863068 42.189 0.961597 46.2613 0.973911C56.8638 1.0047 67.2076 2.72474 77.3011 5.94314C83.2771 7.84894 89.1351 10.1283 95.2712 11.524C100.624 12.7412 106.018 13.7336 111.474 14.3371C118.824 15.1499 125.825 13.8732 132.474 10.6312C135.408 9.20054 138.241 7.59544 141.009 5.8713C141.574 5.52031 142.12 5.1683 142.33 4.45811C142.446 4.06813 142.795 3.7931 143.216 3.77873C143.684 3.76334 144.014 4.06916 144.182 4.48069C144.357 4.91378 144.575 5.27094 144.984 5.53059C150.557 9.07638 156.295 12.2784 162.824 13.7192C166.341 14.4951 169.9 14.7271 173.514 14.413C184.491 13.4596 195.101 10.936 205.445 7.19829C211.989 4.83374 218.707 3.13115 225.587 2.11103C228.773 1.63894 231.979 1.32079 235.199 1.11964C240.057 0.814838 244.919 0.894878 249.771 1.00572C256.412 1.1576 262.995 1.85138 269.357 4.01067C274.393 5.71942 278.868 8.41442 283.161 11.4686C283.561 11.7539 283.963 12.0146 284.434 12.1326C285.098 12.2989 285.549 12.656 285.795 13.319C285.923 13.6659 286.136 13.983 285.879 14.3309C285.624 14.6737 285.234 14.6285 284.877 14.5721C281.783 14.0815 278.697 13.5314 275.594 13.0943C271.511 12.5185 267.424 11.9623 263.324 11.5066C259.661 11.1002 255.995 10.9545 252.312 10.9729C247.141 10.9986 242.034 11.6205 236.955 12.5165C227.84 14.1246 218.822 16.2234 209.729 17.9444C204.519 18.9307 199.279 19.723 193.999 20.2546C191.479 20.5091 188.951 20.7349 186.427 20.7359C175.913 20.739 165.836 18.5992 156.215 14.3402ZM274.409 9.19953C275.499 9.53695 276.069 8.31078 275.062 7.77623C273.328 6.85693 271.529 6.06611 269.671 5.38279C263.006 2.93101 256.041 2.31936 249.041 2.14489C241.536 1.95708 234.034 2.05457 226.571 3.16501C219.596 4.20258 212.764 5.79536 206.146 8.20404C198.377 11.0313 190.461 13.1492 182.367 14.4823C180.883 14.7268 180.901 16.6176 182.405 16.6185C185.209 16.6205 188.001 16.3876 190.783 16.0161C195.173 15.4301 199.551 14.7732 203.891 13.8804C210.358 12.5503 216.686 10.5953 223.22 9.57616C224.885 9.31651 226.509 8.80441 228.207 8.76541C228.454 8.76028 228.826 8.63404 228.913 8.97681C229.002 9.33088 228.662 9.50022 228.394 9.62748C227.651 9.97949 226.844 10.1252 226.045 10.2638C221.111 11.1135 216.208 12.0936 211.36 13.358C205.668 14.842 199.895 15.936 194.07 16.7591C189.89 17.3492 185.705 17.9136 181.477 17.8418C178.648 17.7936 175.827 17.5154 173.013 17.1716C169.356 16.7242 165.744 16.0971 162.207 15.0432C160.09 14.4124 158.025 13.6388 155.952 12.877C155.832 12.8331 155.77 12.937 155.886 12.9896C166.571 17.7874 177.715 20.1509 189.467 19.4859C193.684 19.2468 197.869 18.7573 202.036 18.1333C210.325 16.8905 218.496 15.0165 226.705 13.3467C231.076 12.4569 235.448 11.5866 239.859 10.9103C242.748 10.467 245.648 10.155 248.567 9.96513C251.736 9.75988 254.905 9.77218 258.065 9.91073C261.37 10.0554 264.661 10.4608 267.942 10.9206C272.028 11.4922 276.132 11.9243 280.194 12.6642C280.485 12.7172 280.582 12.3053 280.3 12.215C277.747 11.3974 275.19 10.623 272.627 9.86969C269.411 8.92448 266.136 8.26254 262.804 7.8705C260.348 7.58109 257.881 7.4805 255.42 7.29167C251.731 7.00944 248.066 7.4374 244.388 7.43124C242.318 7.42816 240.246 7.72477 238.177 7.91463C237.068 8.01623 235.964 8.17428 234.858 8.31488C234.524 8.35798 234.221 8.31898 234.153 7.94131C234.093 7.60264 234.393 7.46511 234.646 7.38506C235.016 7.26704 235.403 7.18083 235.789 7.13054C238.658 6.7539 241.534 6.49837 244.428 6.37521C249.309 6.1679 254.181 6.02627 259.065 6.37213C264.293 6.74159 269.405 7.6519 274.409 9.19953ZM105.038 16.6187C106.311 16.604 106.318 14.8293 105.062 14.6224C99.7622 13.75 94.5025 12.7063 89.3506 11.1669C85.0997 9.89739 80.9515 8.31796 76.7263 6.97661C67.5935 4.07943 58.2195 2.45482 48.6556 2.15104C42.3902 1.95194 36.1155 2.03098 29.8531 2.61493C23.5385 3.20504 17.4958 4.68801 11.8163 7.54517C10.6188 8.14795 11.2113 9.43182 12.4989 9.0582C12.7986 8.97123 13.0986 8.88515 13.3988 8.8003C17.35 7.68268 21.3648 6.92118 25.4638 6.5353C28.3199 6.26642 31.1832 6.05398 34.0363 6.12376C37.0782 6.19765 40.1272 6.14327 43.1681 6.38752C45.8415 6.60201 48.514 6.80316 51.1669 7.19725C51.6226 7.26499 52.3954 7.28142 52.2979 7.95465C52.1973 8.64842 51.484 8.30358 51.0725 8.24303C45.0287 7.36146 38.9378 7.32964 32.853 7.19417C31.6512 7.16749 30.4453 7.29372 29.2415 7.36453C26.9857 7.49692 24.7382 7.70526 22.4978 8.00185C16.9949 8.72846 11.7578 10.4937 6.47864 12.0977C6.20209 12.1819 6.28372 12.5795 6.57019 12.5407C9.3501 12.1642 12.1191 11.7605 14.8941 11.3927C19.5206 10.781 24.1429 10.0749 28.8053 9.87893C34.1409 9.6552 39.4786 9.83889 44.7773 10.6045C52.4785 11.717 60.074 13.3929 67.6859 14.9693C76.5088 16.796 85.3409 18.5151 94.3363 19.3094C98.9535 19.7178 103.553 19.7394 108.142 19.2211C114.946 18.4524 121.542 16.7878 127.886 14.1821C128.724 13.8375 129.55 13.4616 130.426 13.0696C130.677 12.9571 130.654 12.7648 130.401 12.8726C122.138 16.3958 113.417 17.5986 104.537 17.8305C100.683 17.9311 96.8527 17.3512 93.0267 16.8248C87.2857 16.0366 81.6022 14.9775 75.9874 13.5684C71.6873 12.4898 67.379 11.4676 63.005 10.7246C61.403 10.4516 59.7784 10.2545 58.239 9.69317C57.9178 9.57617 57.4662 9.39965 57.5893 8.95835C57.6848 8.61557 58.1097 8.77567 58.3919 8.76232C58.6916 8.74796 59.0005 8.74796 59.294 8.80338C62.5196 9.42223 65.7596 9.98155 68.9646 10.6969C76.3456 12.343 83.6414 14.3812 91.163 15.3798C94.327 15.7995 97.4797 16.3465 100.666 16.523C102.125 16.6038 103.582 16.6356 105.038 16.6187ZM150.881 16.4492C150.097 15.6129 148.802 16.4893 149.381 17.4784C153.923 25.2356 160.051 29.9984 167.976 32.1919C168.181 32.2486 168.31 31.9869 168.14 31.8587C167.01 31.0028 165.873 30.1561 164.754 29.2869C164.415 29.0231 164.062 28.6516 164.394 28.2165C164.756 27.7423 165.118 28.0779 165.459 28.3683C166.975 29.6615 168.583 30.8335 170.234 31.948C170.653 32.2311 171.097 32.4754 171.533 32.7332C171.592 32.7684 171.669 32.7526 171.709 32.6966C171.746 32.645 171.742 32.5744 171.698 32.528C171.482 32.2962 171.265 32.0648 171.051 31.831C169.518 30.1674 167.94 28.5438 166.465 26.831C163.197 23.0358 159.929 19.2488 156.023 16.0735C153.23 13.8035 150.164 11.9368 147.148 9.97576C146.925 9.83102 146.689 10.0448 146.863 10.2453C148.188 11.7704 149.447 13.3611 150.877 14.7825C151.844 15.7431 152.505 17.0464 153.863 17.6027C154.071 17.6879 154.124 17.9239 154.072 18.1528C154.018 18.3857 153.856 18.5109 153.634 18.5561C153.217 18.6413 152.854 18.5315 152.56 18.2236C151.998 17.6355 151.438 17.0434 150.881 16.4492ZM136.132 14.2491C137.048 13.2857 135.985 12.1413 134.87 12.8644C131.128 15.2905 127.786 18.1866 124.758 21.4523C121.519 24.9447 118.557 28.6855 115.203 32.0753C114.9 32.3812 115.219 32.5821 115.59 32.3635C115.838 32.217 116.079 32.0701 116.311 31.9111C117.978 30.7678 119.624 29.5968 121.144 28.2606C121.417 28.0204 121.715 27.8542 122.024 28.1313C122.381 28.4525 122.194 28.7953 121.945 29.0847C121.811 29.2417 121.627 29.3597 121.461 29.488C120.607 30.1439 121.204 31.317 122.2 30.9095C125.62 29.5112 128.698 27.496 131.449 24.877C135.137 21.3651 137.569 17.0413 139.658 12.4866C139.763 12.2578 139.54 12.0783 139.382 12.2743C137.753 14.2981 135.887 16.1043 134.141 18.0204C133.803 18.3919 133.421 18.671 132.876 18.5623C132.654 18.5181 132.485 18.4042 132.421 18.1743C132.359 17.9475 132.403 17.692 132.606 17.6181C133.882 17.1522 134.467 15.937 135.342 15.0596C135.609 14.7927 135.872 14.5226 136.132 14.2491Z" fill="#375A54"/>
<path d="M231.185 20.7011C238.365 20.813 245.309 22.1636 252.022 24.7067C252.444 24.8668 252.862 25.0536 253.246 25.2866C253.656 25.5339 254.116 25.8202 254.091 26.3744C254.063 26.9717 253.576 27.2447 253.081 27.4099C252.253 27.686 251.41 27.9241 250.567 28.1499C246.112 29.3383 241.675 30.575 237.119 31.3631C228.768 32.8081 220.817 31.5089 213.105 28.1848C211.418 27.4581 209.962 26.2646 208.146 25.811C207.842 25.735 207.592 25.5134 207.601 25.1675C207.611 24.7806 207.903 24.5764 208.237 24.4912C209.346 24.21 210.457 23.9298 211.576 23.6938C215.732 22.8173 219.838 21.6946 224.067 21.1876C226.429 20.9043 228.797 20.6796 231.185 20.7011ZM239.115 29.8685C241.032 29.4928 240.693 26.895 238.747 27.0579C238.449 27.0825 238.188 27.0363 238.079 26.7315C237.966 26.4155 238.188 26.2215 238.411 26.0583C238.802 25.773 239.261 25.7874 239.716 25.7874C243.308 25.7884 246.899 25.7884 250.491 25.7853C250.661 25.7853 250.694 25.5431 250.534 25.4843C244.257 23.1746 237.812 21.9063 231.139 21.8588C227.028 21.8301 223.017 22.4197 219.043 23.2356C217.217 23.6106 217.362 25.6409 219.226 25.6078C219.558 25.6016 219.891 25.6088 220.221 25.6396C220.481 25.6642 220.685 25.8151 220.716 26.0891C220.747 26.3652 220.558 26.5509 220.327 26.6412C220.136 26.7162 219.916 26.7418 219.708 26.7418C218.049 26.7469 216.388 26.7541 214.729 26.7336C214.375 26.7295 214.023 26.651 213.653 26.6063C213.249 26.5574 213.18 27.0067 213.555 27.1677C219.045 29.5261 224.736 30.966 230.752 30.852C233.437 30.8018 236.094 30.4446 238.73 29.9428C238.859 29.9184 238.987 29.8936 239.115 29.8685Z" fill="#375A54"/>
<path d="M55.3789 20.7032C60.9054 20.6806 66.2851 21.6976 71.632 22.9579C73.6261 23.4279 75.6304 23.8559 77.6296 24.3095C77.8934 24.369 78.1561 24.446 78.4044 24.5496C78.662 24.6574 78.8776 24.8411 78.8909 25.148C78.9053 25.4589 78.698 25.6447 78.4455 25.7719C73.153 28.4382 67.724 30.7268 61.8044 31.5807C58.6045 32.0425 55.3973 32.0425 52.1687 31.711C46.0726 31.086 40.2567 29.2633 34.372 27.728C34.1093 27.6593 33.8527 27.57 33.5972 27.4786C33.0471 27.2826 32.4436 27.0599 32.4087 26.3908C32.3738 25.7268 32.9526 25.4097 33.4658 25.1623C35.897 23.9893 38.4935 23.2986 41.089 22.6172C45.7719 21.3887 50.5369 20.7534 55.3789 20.7032ZM67.0805 25.6149C69.117 25.637 69.3126 23.5148 67.3128 23.1299C56.9487 21.1348 46.5715 21.4685 36.1037 25.3757C35.8777 25.46 35.9381 25.7873 36.1793 25.7873C39.7107 25.7873 43.2421 25.7884 46.7725 25.7863C47.2272 25.7863 47.6859 25.7719 48.0769 26.0562C48.3006 26.2194 48.5223 26.4123 48.4115 26.7284C48.3037 27.0343 48.04 27.101 47.7444 27.0527C46.1557 26.7941 44.5537 26.9388 42.9578 26.907C41.6787 26.8819 41.4442 28.475 42.6817 28.7992C42.8446 28.8418 43.0074 28.8843 43.1703 28.9267C46.9695 29.915 50.8263 30.5975 54.7426 30.8346C58.1303 31.0398 61.4852 30.6427 64.7888 29.8678C67.6238 29.2026 70.3809 28.315 73.0731 27.1022C73.4548 26.9302 73.4309 26.5159 73.0175 26.5817C71.0655 26.8896 69.1012 26.7028 67.1441 26.7377C66.6064 26.7469 65.7874 26.908 65.8131 26.0891C65.8356 25.3932 66.6094 25.6098 67.0805 25.6149Z" fill="#375A54"/>
<path d="M91.1474 36.3344C87.1306 36.1887 83.1856 35.4877 79.2303 34.8648C78.7685 34.7919 78.1989 34.7108 78.1455 34.0899C78.0932 33.4721 78.6125 33.2114 79.061 32.9774C82.8377 31.007 86.7252 29.3054 90.7821 27.9805C95.3706 26.4821 100.111 25.8848 104.882 25.4076C107.187 25.1767 109.483 24.8586 111.783 24.5804C111.842 24.5732 111.902 24.5507 111.961 24.5537C112.537 24.5743 113.267 24.2602 113.581 24.9725C113.878 25.6498 113.117 25.8725 112.774 26.2276C109.758 29.3495 106.426 32.0569 102.463 33.9103C99.4767 35.3071 96.3353 36.0655 93.0368 36.1774C92.4067 36.1969 91.7776 36.28 91.1474 36.3344ZM101.769 33.0378C103.668 32.194 102.44 29.8905 100.469 30.5513C100.043 30.694 99.5116 30.9351 99.3146 30.3255C99.1165 29.7128 99.7251 29.5989 100.124 29.4542C100.918 29.1658 101.732 28.938 102.535 28.6763C104.005 28.196 103.651 26.6721 102.117 26.8661C97.1923 27.4888 92.3397 28.4573 87.6609 30.2912C86.8008 30.6283 87.1321 31.7148 88.0471 31.5868C88.3324 31.5468 88.7111 31.4678 88.787 31.8855C88.8537 32.2508 88.5499 32.415 88.2503 32.5054C87.9331 32.6008 87.6078 32.6706 87.2825 32.7311C85.3899 33.0867 83.4669 33.2766 81.4547 33.6971C81.2287 33.7443 81.2237 34.0733 81.4522 34.1063C83.9543 34.4717 86.4502 34.8535 88.9748 35.0741C93.045 35.4302 96.9777 34.9438 100.773 33.4547C101.109 33.3225 101.441 33.1835 101.769 33.0378Z" fill="#375A54"/>
<path d="M195.248 36.2656C188.446 36.3672 182.575 33.9586 177.398 29.6708C175.909 28.4372 174.576 27.0435 173.161 25.734C172.926 25.5164 172.736 25.2886 172.891 24.9499C173.033 24.6369 173.315 24.5178 173.634 24.5353C174.475 24.5815 175.321 24.6071 176.153 24.72C180.774 25.3471 185.443 25.6478 190.026 26.5263C196.211 27.7116 201.965 30.11 207.514 33.0298C207.935 33.2515 208.402 33.5203 208.34 34.1043C208.28 34.678 207.763 34.7796 207.329 34.8494C203.317 35.4918 199.31 36.1907 195.248 36.2656ZM177.092 25.9956C177.017 25.9847 176.947 26.0327 176.929 26.106C176.912 26.1767 176.951 26.2486 177.019 26.2741C178.046 26.6584 179.066 27.0662 180.105 27.416C182.249 28.1365 184.408 28.8138 186.554 29.5291C186.919 29.6502 187.367 29.8381 187.171 30.3512C186.986 30.8366 186.555 30.733 186.164 30.6006C183.221 29.6112 180.218 28.7954 177.334 27.6275C177.089 27.5282 176.887 27.8489 177.083 28.0265C177.163 28.0988 177.241 28.1685 177.32 28.2371C177.661 28.5337 178.014 28.8159 178.366 29.1002C183.275 33.0657 188.839 35.2209 195.195 35.2116C196.949 35.2096 198.683 34.9879 200.416 34.795C201.751 34.6462 201.786 33.1631 200.462 32.9417C200.391 32.9298 200.32 32.9178 200.249 32.9056C199.567 32.7876 198.886 32.6552 198.213 32.492C197.912 32.4191 197.623 32.2303 197.704 31.8578C197.781 31.5017 198.109 31.5601 198.376 31.5776C198.585 31.5909 198.794 31.632 199.002 31.6628C199.755 31.7734 200.038 30.8377 199.335 30.5469C196.632 29.429 193.849 28.5512 190.988 27.9076C186.411 26.8778 181.718 26.6727 177.092 25.9956Z" fill="#375A54"/>
<path d="M164.831 1.95108C169.277 2.026 174.107 2.34929 178.697 4.19248C179.145 4.37208 179.601 4.53628 180.032 4.74872C180.382 4.92113 180.77 5.12946 180.72 5.60463C180.67 6.08596 180.296 6.31892 179.87 6.43796C178.796 6.73661 177.72 7.03219 176.638 7.3021C173.334 8.12518 170.048 9.06215 166.657 9.45009C160.387 10.1675 154.393 9.29615 148.855 6.08698C148.387 5.81605 147.905 5.53485 147.593 5.07508C147.314 4.66354 147.28 4.16989 147.883 4.12269C149.88 3.96361 151.77 3.3191 153.718 2.94964C157.254 2.27948 160.822 2.01266 164.831 1.95108ZM172.734 4.77643C173.527 4.77237 173.654 3.95508 172.874 3.8123C166.546 2.65489 156.761 3.14385 151.756 4.59874C151.462 4.68435 151.494 5.0871 151.798 5.13255C155.464 5.68674 159.144 6.04081 162.857 5.97307C163.175 5.96692 163.385 6.11469 163.455 6.41333C163.527 6.72224 163.359 6.95931 163.092 7.06605C162.876 7.15328 162.623 7.17382 162.386 7.17587C159.762 7.19742 157.153 6.9819 154.549 6.68531C154.19 6.64426 153.827 6.634 153.469 6.58576C153.052 6.5297 153.032 6.83049 153.431 6.96605C157.112 8.2162 160.822 8.71301 164.636 8.48231C167.446 8.31271 170.172 7.72736 172.876 7.03115C173.599 6.84479 173.487 5.91143 172.74 5.90738C172.308 5.9043 171.796 5.8766 171.823 5.29983C171.848 4.80003 172.333 4.77849 172.734 4.77643Z" fill="#375A54"/>
<path d="M124.118 2.03709C128.383 2.00938 132.959 2.90635 137.504 4.01986C137.737 4.07733 137.981 4.13582 138.217 4.12658C138.555 4.11324 138.909 4.02703 139.04 4.46012C139.168 4.87987 138.893 5.15491 138.611 5.3848C137.167 6.57015 135.485 7.32037 133.749 7.93922C128.149 9.9343 122.447 10.1765 116.653 8.92033C113.381 8.21118 110.142 7.37682 106.91 6.51474C106.396 6.37825 105.852 6.23456 105.782 5.63316C105.706 4.98353 106.298 4.79265 106.756 4.60382C109.927 3.3025 113.203 2.44862 116.641 2.21976C118.986 2.06376 121.324 1.85441 124.118 2.03709ZM127.257 8.29669C128.339 8.16352 128.115 7.02233 127.028 7.10587C125.941 7.189 124.859 7.17566 123.774 7.16437C123.371 7.16027 123.04 6.9622 123.03 6.53219C123.022 6.14118 123.291 5.92872 123.696 5.9862C125.269 6.20992 126.826 5.88666 128.388 5.82611C130.237 5.75452 130.279 3.74371 128.441 3.52572C122.665 2.84046 116.883 3.05031 111.094 4.40011C110.784 4.47251 110.788 4.77211 111.107 4.77211C111.982 4.77314 112.857 4.76494 113.731 4.77828C114.154 4.78444 114.689 4.78238 114.668 5.3612C114.649 5.92257 114.117 5.89897 113.692 5.91231C113.421 5.92052 113.149 5.9154 112.877 5.9154C112.334 5.9154 112.227 6.65069 112.751 6.7939C117.57 8.10968 122.399 8.89434 127.257 8.29669Z" fill="#375A54"/>
<path d="M274.218 26.1915C268.321 26.3424 262.82 24.9867 257.644 22.2609C255.856 21.3188 254.053 20.4023 252.266 19.4602C251.907 19.2714 251.402 19.1349 251.481 18.593C251.561 18.0429 252.076 17.9526 252.512 17.8571C258.478 16.5414 264.417 16.6554 270.314 18.2615C274.156 19.3083 277.986 20.3992 281.599 22.1172C282.551 22.5698 283.514 23.0255 284.273 23.786C285.033 24.5454 284.842 25.2946 283.821 25.6168C282.742 25.9565 281.603 25.9473 280.504 25.9719C278.394 26.0181 276.293 26.3126 274.218 26.1915ZM276.335 25.0312C277.318 24.9906 277.411 23.7097 276.454 23.4781C276.071 23.3857 275.585 23.3221 275.655 22.8059C275.736 22.2055 276.275 22.3225 276.673 22.3902C277.265 22.4918 277.845 22.6683 278.43 22.8151C278.985 22.9536 279.539 23.0984 280.095 23.2338C280.562 23.3468 281.03 23.4524 281.498 23.5609C281.588 23.5817 281.676 23.5236 281.693 23.4332C281.708 23.3573 281.666 23.2819 281.594 23.2534C275.365 20.7767 269.093 18.5313 262.465 18.1889C260.982 18.1124 260.878 19.6728 262.334 19.9641C262.728 20.0431 263.211 20.0883 263.102 20.625C262.996 21.1484 262.503 21.1648 262.069 21.0858C261.418 20.9678 260.777 20.7954 260.126 20.6691C259.128 20.4754 258.694 21.6396 259.616 22.0667C264.953 24.5369 270.558 25.27 276.335 25.0312Z" fill="#375A54"/>
<path d="M12.2257 26.2655C9.3973 26.1208 6.56683 26.0058 3.74149 25.8129C2.99743 25.7616 2.01837 25.779 1.79977 24.8205C1.59349 23.9153 2.43809 23.5182 3.05693 23.1312C5.87304 21.366 9.02166 20.3921 12.161 19.413C15.1834 18.4699 18.2377 17.6632 21.3904 17.2404C25.3805 16.7057 29.3225 16.9469 33.25 17.7279C33.6626 17.81 34.0906 17.8685 34.4754 18.0255C35.161 18.3047 35.2451 18.8804 34.6201 19.2242C29.0628 22.2866 23.4973 25.3521 17.0143 25.9894C15.4277 26.1454 13.8318 26.3189 12.2257 26.2655ZM9.95763 23.4894C9.01306 23.7193 9.10525 24.9859 10.0765 25.0276C16.176 25.2893 22.0896 24.4706 27.6966 21.6696C28.428 21.3042 28.0643 20.337 27.2617 20.4927C26.257 20.6877 25.2594 20.9206 24.2527 21.1013C23.8781 21.168 23.4747 21.0684 23.3834 20.6405C23.2797 20.1581 23.6677 20.0555 24.0464 19.9795C24.6078 19.8677 25.162 19.724 25.7233 19.6142C26.7443 19.4159 26.6962 18.2052 25.6562 18.2019C20.037 18.184 14.6996 19.6324 9.46155 21.5949C8.7765 21.8516 8.99652 22.5755 9.7093 22.4108C10.1229 22.3154 10.715 22.1522 10.8228 22.7926C10.9182 23.3601 10.364 23.3909 9.95763 23.4894Z" fill="#375A54"/>
<path d="M139.495 26.1751C139.528 22.9085 140.403 19.6849 141.47 16.5004C141.776 15.585 142.079 14.6685 142.398 13.7572C142.527 13.3897 142.771 13.1496 143.199 13.1393C143.612 13.1291 143.915 13.2923 144.05 13.6781C145.489 17.7802 147.042 21.8904 146.996 26.3003C146.952 30.5399 146.104 34.685 144.609 38.6742C144.334 39.4079 144.01 40.1222 143.955 40.9238C143.931 41.2819 143.731 41.5477 143.331 41.5836C142.953 41.6175 142.635 41.4749 142.573 41.0951C142.231 39.0251 141.204 37.1707 140.742 35.1386C140.08 32.223 139.532 29.294 139.495 26.1751ZM142.376 36.4598C142.397 36.5259 142.46 36.5694 142.529 36.5659C142.61 36.5619 142.673 36.4955 142.673 36.4147C142.673 34.7223 142.672 33.0308 142.674 31.3383C142.674 30.9329 142.698 30.4629 143.208 30.4424C143.792 30.4198 143.809 30.9227 143.81 31.3568C143.817 32.8952 143.814 34.4336 143.825 35.9709C143.827 36.3538 144.168 36.2762 144.277 35.9093C145.863 30.5873 146.399 25.2964 144.839 19.9597C144.708 19.5111 143.7 19.4792 143.233 19.4786C142.743 19.4775 141.759 19.4446 141.626 19.9161C140.035 25.586 140.676 31.0313 142.376 36.4598Z" fill="#375A54"/>
<path d="M234.224 27.2965C234.224 27.2851 234.214 27.2762 234.203 27.2762C233.818 27.2767 233.433 27.2912 233.049 27.271C232.725 27.2546 232.431 27.1335 232.427 26.7538C232.423 26.3402 232.762 26.3022 233.068 26.2817C233.908 26.2242 234.749 26.1894 235.589 26.1237C235.944 26.096 236.291 26.0631 236.338 26.5291C236.379 26.9283 236.095 27.1684 235.756 27.2228C235.261 27.3018 234.751 27.2909 234.246 27.3162C234.235 27.3168 234.225 27.3078 234.224 27.2965Z" fill="#375A54"/>
<path d="M52.1834 27.2945C52.1827 27.3067 52.1725 27.3159 52.1603 27.3153C51.687 27.2903 51.2052 27.3079 50.7433 27.2231C50.3698 27.1543 50.0691 26.8977 50.1676 26.4482C50.2548 26.049 50.5802 26.0993 50.8952 26.1229C51.7347 26.1855 52.5763 26.2235 53.4158 26.2809C53.7216 26.3015 54.0623 26.3343 54.0654 26.7469C54.0685 27.1266 53.7739 27.2549 53.4507 27.2703C53.0363 27.2905 52.6199 27.2758 52.2045 27.2754C52.1934 27.2754 52.1841 27.2835 52.1834 27.2945Z" fill="#375A54"/>
</svg>
