<svg width="30" height="30" viewBox="0 0 30 30" fill="none" xmlns="http://www.w3.org/2000/svg">
<path d="M3.93521 24.3716L3.93509 24.3715C1.79196 21.844 0.5 18.5735 0.5 15C0.5 6.99194 6.99194 0.5 15 0.5C23.0081 0.5 29.5 6.99194 29.5 15C29.5 18.5736 28.208 21.844 26.0649 24.3715L26.0648 24.3716C25.9282 24.5327 25.788 24.6909 25.6443 24.8461C25.3441 25.1703 25.0293 25.4809 24.701 25.7768H5.299C4.97065 25.4809 4.65581 25.1702 4.35549 24.846C4.21191 24.6908 4.07175 24.5327 3.93521 24.3716Z" fill="#375A54" stroke="#A2D6BB"/>
<path d="M14.9996 20.9587C18.7291 20.9587 22.0742 22.9848 24.2317 26.1815C21.7237 28.2547 18.5074 29.5001 14.9996 29.5001C11.4917 29.5001 8.27543 28.2547 5.76743 26.1815C7.92498 22.9848 11.2701 20.9587 14.9996 20.9587Z" fill="#A2D6BB" stroke="#A2D6BB"/>
<path d="M20.5581 11.8933C20.5581 14.9631 18.0695 17.4516 14.9998 17.4516C11.93 17.4516 9.44141 14.9631 9.44141 11.8933C9.44141 8.82352 11.93 6.33496 14.9998 6.33496C18.0695 6.33496 20.5581 8.82352 20.5581 11.8933Z" fill="#A2D6BB" stroke="#A2D6BB"/>
</svg>
