<svg width="30" height="8" viewBox="0 0 30 8" fill="none" xmlns="http://www.w3.org/2000/svg">
<path d="M24.6186 7.70096C24.5726 7.74289 24.5267 7.78435 24.5106 7.79495C24.5288 7.79079 24.6214 7.7111 24.6652 7.66296L24.6587 7.63947C24.7631 7.53213 24.6928 7.62473 24.799 7.52476C24.816 7.53213 24.7207 7.62658 24.6355 7.70812C24.7149 7.63718 24.8004 7.57405 24.8197 7.5312C24.8994 7.47015 24.826 7.55446 24.9209 7.48006C24.9815 7.4197 25.0533 7.33079 25.1349 7.27459L25.1356 7.27806C25.2325 7.20756 25.2977 7.14307 25.3613 7.08042C25.4246 7.01777 25.4882 6.95903 25.5785 6.8966L25.564 6.91595C25.5972 6.89544 25.641 6.8586 25.6909 6.8169C25.7416 6.77613 25.799 6.73098 25.857 6.69228C25.8236 6.71393 25.7884 6.72522 25.8533 6.67203C25.9201 6.62756 25.9727 6.58517 26.0229 6.54856C26.0728 6.51193 26.1187 6.47853 26.1696 6.44905L26.2497 6.3682C26.3055 6.32605 26.3843 6.27215 26.4773 6.20489C26.5243 6.17172 26.5743 6.13464 26.6289 6.09685C26.6835 6.05932 26.7415 6.01968 26.8021 5.97799C26.9223 5.89321 27.0571 5.80708 27.196 5.71516C27.2651 5.66887 27.3379 5.62533 27.41 5.57925C27.483 5.53409 27.5551 5.48642 27.6297 5.44288C27.7039 5.39841 27.7783 5.35397 27.8518 5.30996C27.9248 5.2655 27.9997 5.22496 28.0718 5.18326C28.1443 5.14249 28.2144 5.10057 28.2846 5.06349C28.3542 5.02571 28.4219 4.98909 28.4866 4.95407C28.5191 4.93657 28.5509 4.91952 28.5817 4.9027C28.6131 4.88681 28.6435 4.87115 28.673 4.85595C28.7338 4.82486 28.7909 4.79582 28.8434 4.76887C28.8688 4.75598 28.8934 4.74353 28.9178 4.73133C28.9418 4.7198 28.965 4.70853 28.9881 4.69747C29.0346 4.67582 29.0788 4.65531 29.1207 4.63595C29.2041 4.59726 29.2778 4.5634 29.34 4.5346L29.3039 4.55418C29.4483 4.48761 29.607 4.41252 29.7821 4.33375L29.8542 4.30104C30.0493 4.21305 30.0483 3.93593 29.853 3.8491L29.7293 3.79405C29.5121 3.69547 29.2875 3.59319 29.0588 3.48931C29.0012 3.46328 28.9457 3.43747 28.889 3.40961C28.8506 3.39049 28.8118 3.37138 28.7731 3.35203C28.7144 3.32301 28.6554 3.29375 28.5965 3.2645C28.4788 3.20484 28.362 3.14265 28.2456 3.08253C27.7829 2.83698 27.3523 2.57922 27.0469 2.39149C26.9941 2.34657 26.9267 2.3012 26.8599 2.25306C26.7928 2.20561 26.7244 2.15884 26.6666 2.1167C26.7283 2.16715 26.6991 2.16184 26.6479 2.12638C26.5579 2.06556 26.5125 2.03193 26.4871 2.01581C26.462 1.99922 26.4579 1.99853 26.4535 1.99783C26.4445 1.99645 26.4346 1.99576 26.2526 1.87114C26.1755 1.81701 26.0587 1.73316 25.9186 1.62857C25.8498 1.57512 25.7747 1.51685 25.6954 1.45558C25.6756 1.44015 25.6556 1.42449 25.6353 1.4086C25.6153 1.39248 25.5952 1.37589 25.5747 1.35931C25.5342 1.32614 25.4927 1.29204 25.4508 1.25772C25.4089 1.22316 25.366 1.18861 25.3234 1.15268C25.2815 1.11651 25.2391 1.0799 25.1965 1.04326L25.1327 0.988217C25.0958 0.956432 25.0553 0.922569 25.0184 0.888937C24.9431 0.822135 24.8678 0.750734 24.7929 0.682315C24.6436 0.543881 24.4937 0.407967 24.3529 0.274362L24.3488 0.270457C24.1929 0.123499 23.9367 0.230148 23.9312 0.44437C23.9257 0.661363 23.921 0.837123 23.9178 0.955278C23.9227 1.0716 23.9245 1.18978 23.9247 1.31001C23.9245 1.36991 23.9243 1.43071 23.9243 1.49176C23.9238 1.53183 23.9236 1.57237 23.9231 1.61268C23.9215 1.75065 23.919 1.88818 23.9252 2.00911L23.9197 1.98469C23.9246 2.20492 23.8939 3.29411 23.8873 3.80496C23.7573 3.81131 23.6351 3.81934 23.4765 3.80972L23.5078 3.80429C23.4052 3.79448 23.203 3.80674 23.0178 3.79608C23.0707 3.79954 23.1165 3.8116 23.0052 3.81326C22.7922 3.80229 22.6469 3.81229 22.4913 3.79902L22.3418 3.81476C21.6004 3.8096 18.6716 3.82461 17.9267 3.82517L17.9559 3.82267C16.8211 3.82767 14.4915 3.82009 17.2807 3.83915C17.0994 3.82278 16.8492 3.82584 16.66 3.82088C16.7652 3.82778 16.7291 3.83896 16.6469 3.8381C16.0703 3.83471 16.608 3.84899 16.0248 3.8542C15.3532 3.86717 12.7834 3.84337 12.1873 3.82821C11.9351 3.84599 11.6337 3.83813 11.3637 3.84081C11.3365 3.79194 11.3097 3.75425 11.2881 3.73516C11.2193 3.61312 11.3136 3.73774 11.2294 3.59095C11.1937 3.54232 11.1495 3.48813 11.1061 3.43097C11.0848 3.40211 11.0619 3.37371 11.0399 3.34506C11.0181 3.31632 10.9973 3.28726 10.9784 3.25817L10.9822 3.25837C10.9588 3.22339 10.9359 3.19108 10.9121 3.16195C10.8887 3.13246 10.8659 3.10489 10.8436 3.07868C10.7999 3.02562 10.7551 2.98053 10.7113 2.93601C10.6675 2.89145 10.625 2.8471 10.5783 2.80181C10.5553 2.77884 10.532 2.75492 10.5082 2.72949C10.4846 2.70392 10.4602 2.677 10.4337 2.64931L10.4614 2.66828C10.4256 2.62742 10.3672 2.57177 10.3002 2.50965C10.266 2.47938 10.2296 2.44733 10.1927 2.41473C10.1746 2.39811 10.1563 2.38135 10.138 2.36463C10.1194 2.34816 10.1009 2.33173 10.0826 2.31547C10.1237 2.35347 10.1534 2.3932 10.0613 2.3203C10.0195 2.2829 9.98067 2.24861 9.94295 2.21812C9.90445 2.18858 9.86845 2.16099 9.83397 2.13456C9.76557 2.0808 9.69952 2.03685 9.636 1.98414C9.59023 1.95785 9.54257 1.93469 9.49555 1.91081C9.33249 1.80391 9.03973 1.62961 8.66102 1.46774C8.47154 1.38769 8.26192 1.30793 8.03769 1.24377C7.81394 1.17843 7.57733 1.12419 7.33757 1.08627C7.09766 1.04909 6.85478 1.02947 6.62033 1.02564C6.50312 1.02241 6.38793 1.02729 6.27626 1.03128C6.22046 1.03539 6.16551 1.03944 6.11154 1.04342C6.09805 1.04446 6.08462 1.0455 6.07127 1.04652C6.05794 1.04807 6.04468 1.04963 6.03148 1.05117C6.00508 1.05429 5.97895 1.05737 5.95311 1.06041C5.92727 1.06349 5.90172 1.06653 5.87646 1.06953C5.8512 1.07251 5.82644 1.07734 5.80189 1.08111C5.75284 1.08917 5.70507 1.09702 5.65868 1.10464C5.56917 1.12377 5.48509 1.14175 5.4075 1.15834C5.36873 1.16669 5.33159 1.17468 5.29621 1.1823C5.26133 1.19153 5.22818 1.2003 5.19689 1.2086C5.13438 1.22532 5.07931 1.24002 5.03279 1.25246L5.06131 1.24229C5.02588 1.25187 4.98929 1.26176 4.9516 1.27195C4.91389 1.28208 4.87621 1.29554 4.83694 1.30768C4.75867 1.33273 4.6764 1.35909 4.59065 1.38653C4.50601 1.41651 4.41874 1.44949 4.32825 1.4826C4.23713 1.51444 4.14627 1.55365 4.05252 1.59242C3.67773 1.74786 3.27932 1.94152 2.89475 2.15672C2.12504 2.58738 1.40593 3.09015 0.936815 3.4369C0.897852 3.45993 0.8561 3.48644 0.812983 3.51494C0.801516 3.52261 0.789932 3.53037 0.778254 3.5382C0.758512 3.5519 0.738619 3.56571 0.718609 3.5796C0.678492 3.60742 0.638145 3.63596 0.597933 3.66482C0.435852 3.78101 0.272329 3.89826 0.13147 3.99923C0.296303 3.88749 0.256802 3.93016 0.138243 4.01565C0.0861416 4.05349 0.0403099 4.08676 1.90735e-06 4.11602C0.0388851 4.14531 0.0746727 4.17057 0.104553 4.19241C0.165295 4.23599 0.20701 4.26589 0.236044 4.28672C0.294804 4.32817 0.304113 4.33292 0.314098 4.33781C0.333801 4.34689 0.357428 4.3597 0.770805 4.65394C0.842533 4.70376 0.939604 4.77116 1.05556 4.85168C1.16689 4.92839 1.29516 5.01895 1.43794 5.11513C1.50931 5.16324 1.58244 5.21476 1.6599 5.26548C1.73704 5.31658 1.8164 5.36915 1.89723 5.42269C1.97833 5.47593 2.06232 5.52846 2.14615 5.58239C2.22965 5.63676 2.31582 5.68907 2.40177 5.74145C2.57234 5.84794 2.7476 5.9473 2.91478 6.04383C2.9997 6.09022 3.08284 6.1356 3.16331 6.17955C3.18343 6.19055 3.20338 6.20144 3.22316 6.21226C3.24329 6.22253 3.26322 6.23271 3.28298 6.24279C3.3225 6.26292 3.36125 6.28264 3.39911 6.3019C3.43698 6.3212 3.47396 6.34003 3.50994 6.35837C3.52795 6.36751 3.54571 6.37651 3.56322 6.3854C3.58103 6.39375 3.59858 6.40199 3.61584 6.41009C3.68489 6.44256 3.74944 6.47293 3.80866 6.50077C3.83825 6.51474 3.86652 6.52807 3.89332 6.54073C3.9206 6.55252 3.94642 6.56366 3.97065 6.57413C4.01911 6.59514 4.06123 6.6134 4.09613 6.62852C4.13504 6.64134 4.17483 6.65523 4.21531 6.66991C4.25552 6.68511 4.29814 6.69752 4.34023 6.71243C4.42493 6.74119 4.51122 6.7725 4.59757 6.80315C4.77322 6.85721 4.94621 6.91695 5.10527 6.94734L5.07243 6.94441C5.1146 6.95436 5.18104 6.97117 5.26579 6.99311C5.30785 7.00513 5.35603 7.01321 5.4074 7.02455C5.45893 7.0354 5.51436 7.04706 5.57292 7.05939C5.80779 7.10876 6.10167 7.14936 6.39688 7.16481C6.69256 7.18112 6.99117 7.17137 7.23947 7.14599C7.48784 7.12094 7.68611 7.08442 7.78564 7.06112L7.73123 7.0692C7.81771 7.04723 7.87976 7.03288 7.92871 7.02295C7.97725 7.01125 8.01278 7.00446 8.04622 6.99892C8.0796 6.99311 8.11119 6.98961 8.15113 6.98168C8.19099 6.97346 8.23967 6.96244 8.30792 6.94445C8.29709 6.94077 8.30711 6.93173 8.32985 6.91969C8.35242 6.9071 8.38738 6.89048 8.42713 6.87338C8.46671 6.85577 8.5116 6.83917 8.55223 6.82112C8.59299 6.80342 8.6307 6.78768 8.65765 6.77689L8.65561 6.78381C8.67581 6.77533 8.69923 6.76548 8.72524 6.75455C8.75076 6.74244 8.77883 6.72913 8.80886 6.71487C8.8388 6.70052 8.8707 6.68522 8.904 6.66927C8.937 6.65273 8.97079 6.63422 9.00563 6.61602C9.0403 6.59745 9.07615 6.57936 9.11146 6.55964C9.14653 6.53954 9.18181 6.51931 9.21675 6.49928C9.28735 6.46067 9.3536 6.41759 9.41572 6.38101L9.41328 6.39908C9.46409 6.36651 9.52435 6.32412 9.59021 6.28037C9.60668 6.26946 9.62346 6.25836 9.64041 6.24712C9.65734 6.23585 9.67379 6.22346 9.69074 6.2116C9.72451 6.18773 9.75862 6.1636 9.79231 6.13976C9.8265 6.11665 9.85815 6.09091 9.88955 6.0674C9.92078 6.04364 9.95082 6.02076 9.9789 5.99938C10.0343 5.95557 10.0803 5.91582 10.1136 5.88806C10.266 5.76184 10.4561 5.59514 10.6378 5.39612C10.8194 5.19739 10.9923 4.96762 11.1253 4.73847L11.18 4.67165C11.1984 4.64942 11.2148 4.62595 11.2323 4.60307L11.3084 4.50098C11.4126 4.50431 11.511 4.5082 11.5553 4.49943C11.5531 4.50233 11.6902 4.50381 11.6815 4.51526C11.7235 4.49546 11.8226 4.51101 11.9091 4.50618C11.9404 4.50073 11.8861 4.50016 11.8626 4.4941L12.0608 4.48759C12.1382 4.49421 12.1573 4.50597 12.0731 4.50791C12.5909 4.51645 15.0767 4.54225 15.6346 4.53383C15.5629 4.51861 15.3907 4.52829 15.3253 4.50447C15.4728 4.49161 15.5424 4.50968 15.6075 4.49594C15.664 4.53127 15.9315 4.50524 16.0431 4.54116L16.0855 4.52136L16.1587 4.53375C16.8073 4.51478 16.3069 4.52403 16.8819 4.53029C17.2095 4.52815 17.3679 4.50183 17.5494 4.5112C17.5184 4.5091 17.4649 4.49846 17.5433 4.49406C17.5579 4.51159 17.7728 4.48213 17.8147 4.49991C17.8992 4.49792 14.2104 4.50093 14.1179 4.47676C14.1643 4.48882 14.4083 4.49436 14.263 4.50435C14.3453 4.50527 14.4251 4.50901 14.4844 4.50389L14.3787 4.49694C14.6567 4.49423 14.8082 4.51314 14.9893 4.492L14.8866 4.4822C15.0529 4.48115 15.1919 4.47972 15.2571 4.50356L15.0864 4.51037C15.3621 4.51051 15.5284 4.50941 15.7582 4.49744L15.6762 4.49658C15.969 4.47374 17.5004 4.45837 17.7702 4.42949L17.646 4.41079L17.878 4.39595C17.853 4.39568 17.7806 4.44501 17.7506 4.44923C18.2651 4.4488 20.8277 4.44168 21.2845 4.45525C21.4697 4.46593 21.3177 4.48449 21.3156 4.4874C21.541 4.48115 21.4129 4.46818 21.6046 4.47028C21.6569 4.47372 21.5937 4.48465 21.5643 4.48719C21.6483 4.48525 21.7261 4.49183 21.7326 4.48324C21.6276 4.4763 21.6721 4.45365 21.6277 4.43872L21.8742 4.44136L21.8632 4.45571C21.9182 4.45629 22.0027 4.41675 22.2448 4.42514C22.6533 4.43247 23.0971 4.42862 23.5079 4.43308C23.5015 4.44169 23.4152 4.44655 23.3287 4.45138C23.3838 4.45198 23.4678 4.45 23.5185 4.45633C23.4193 4.44082 23.6909 4.44665 23.6134 4.44001C23.7 4.43012 23.7941 4.42593 23.8903 4.42427C23.9088 4.47441 23.921 4.62707 23.9235 4.69427L23.9173 4.69104C23.9238 4.82072 23.9523 5.11442 23.959 5.32841L23.9436 5.32012C23.9625 5.49863 23.9604 5.83449 23.9639 5.96279C23.9616 6.25647 23.9413 6.70935 23.9669 7.10162L23.9618 7.39209C23.9562 7.73505 24.3581 7.92417 24.6186 7.70096ZM8.33168 4.69373C8.31746 4.7147 8.30279 4.73568 8.29143 4.75151C8.28014 4.76739 8.27119 4.77839 8.27119 4.77839L8.2862 4.79199C8.26419 4.82389 8.26092 4.78799 8.24439 4.8202C8.25961 4.84802 8.20777 4.86724 8.21305 4.88606C8.21135 4.88454 8.20058 4.89841 8.19392 4.89239C8.20348 4.90563 8.18649 4.90923 8.18338 4.92054C8.18459 4.92627 8.18886 4.92077 8.1944 4.92098L8.18438 4.9449C8.17466 4.95021 8.16581 4.94701 8.17056 4.9372C8.12802 4.98824 7.93498 5.24176 7.9017 5.30552C7.91649 5.30448 7.92236 5.28181 7.94222 5.28522C7.94012 5.30661 7.92365 5.30617 7.9279 5.31914C7.90128 5.30979 7.89922 5.34977 7.86833 5.3461L7.87809 5.35926L7.86499 5.36172C7.83172 5.43945 7.86073 5.38175 7.81658 5.44072C7.7948 5.47741 7.80132 5.50618 7.78156 5.52143C7.78366 5.5186 7.79674 5.51608 7.79387 5.52744C7.78156 5.52143 7.7856 5.55722 7.77123 5.55407C7.76663 5.56399 7.74568 5.59206 7.76771 5.59255C7.7567 5.59233 7.73615 5.61613 7.73983 5.59624C7.7335 5.60467 7.72561 5.61169 7.72482 5.62027L7.7366 5.61188C7.71917 5.64299 7.6965 5.65119 7.69765 5.67978L7.71107 5.67291C7.70029 5.69127 7.69161 5.70683 7.6717 5.70366L7.67907 5.68234C7.65997 5.71199 7.64919 5.73038 7.64109 5.76025L7.6473 5.75178C7.64186 5.79311 7.54706 5.965 7.5477 6.00648L7.56826 6.00096L7.56218 6.03234C7.56424 6.02949 7.53121 5.99511 7.53669 5.99519C7.50294 6.04904 7.33323 6.33255 7.29434 6.3773C7.275 6.39306 7.27296 6.36878 7.27119 6.36733C7.26025 6.39452 7.27729 6.38592 7.26315 6.40595C7.2574 6.41022 7.25445 6.39881 7.25474 6.39454C7.25041 6.40451 7.24091 6.41028 7.2461 6.41453C7.25765 6.40595 7.26954 6.42021 7.28228 6.42155L7.26413 6.44732L7.25545 6.44018C7.25345 6.44303 7.2574 6.45074 7.25928 6.46055C7.23546 6.45915 7.22271 6.45599 7.20957 6.45338C7.21499 6.45436 7.19706 6.4574 7.16145 6.462C7.14361 6.46417 7.12139 6.46688 7.09547 6.47006C7.0825 6.47156 7.06859 6.47318 7.05387 6.47487C7.0391 6.47597 7.02345 6.47712 7.0071 6.47833C6.94159 6.48301 6.86413 6.48953 6.78012 6.49074C6.69618 6.49476 6.60592 6.49255 6.51514 6.49192C6.33371 6.48566 6.15048 6.47106 6.0123 6.4512C5.99498 6.44903 5.97836 6.44695 5.96248 6.44495C5.94671 6.44233 5.93172 6.43985 5.91756 6.4375C5.88926 6.43279 5.86438 6.42865 5.84364 6.42519C5.80215 6.41828 5.77716 6.41395 5.77429 6.41253L5.75182 6.43427C5.61304 6.40535 5.59438 6.39396 5.57825 6.38379C5.57019 6.37871 5.56273 6.37393 5.54125 6.36753C5.53052 6.36431 5.51626 6.3607 5.49666 6.35641C5.47703 6.35227 5.45206 6.34748 5.42029 6.33934C5.37321 6.34348 5.28671 6.32204 5.19678 6.29642C5.25694 6.19517 5.32463 6.07927 5.35087 6.03804L5.35078 6.04183C5.41433 5.93406 5.55775 5.72148 5.61653 5.60521C5.63796 5.59562 5.65102 5.57119 5.66561 5.55591C5.65483 5.56259 5.64983 5.55437 5.65537 5.5472C5.69249 5.49561 5.65075 5.53887 5.68277 5.48289C5.71475 5.41507 5.88722 5.18994 5.93364 5.14234C5.93892 5.10294 5.97572 5.07496 5.98623 5.04008L5.98773 5.04539C6.00337 5.01095 6.13894 4.84948 6.15889 4.81073L6.15339 4.81393C6.16618 4.77681 6.17936 4.79255 6.2017 4.77212C6.18286 4.76338 6.19231 4.73044 6.19823 4.71955L6.20158 4.72254C6.20963 4.70547 6.21979 4.66097 6.23564 4.63459L6.24397 4.64211C6.24928 4.61441 6.28155 4.57843 6.2914 4.56288C6.31056 4.54168 6.34129 4.51609 6.36588 4.48511C6.93391 4.49302 7.50204 4.49923 8.08389 4.49896C8.10709 4.50499 8.07942 4.5047 8.04993 4.50729C8.19825 4.50472 8.33853 4.50406 8.47552 4.50347C8.47171 4.50885 8.46785 4.51414 8.46409 4.51961C8.45861 4.51934 8.4608 4.51655 8.46132 4.51228C8.44231 4.5471 8.4204 4.57444 8.40372 4.60658C8.3939 4.61181 8.38673 4.61004 8.38127 4.60977C8.38669 4.60996 8.3601 4.65181 8.33168 4.69373ZM11.3038 3.77376C11.3161 3.78803 11.3325 3.81033 11.3499 3.83844L11.3515 3.84085C11.3443 3.84092 11.3372 3.841 11.33 3.8411L11.3297 3.84021C11.326 3.83255 11.3211 3.82238 11.3135 3.80891C11.3056 3.79559 11.2952 3.77882 11.2816 3.7574C11.2836 3.75296 11.2916 3.7594 11.3038 3.77376ZM7.87034 1.85542C7.9321 1.8751 7.9897 1.8917 8.04027 1.91112C8.0911 1.92963 8.13643 1.94616 8.17537 1.96034C8.2136 1.97638 8.24554 1.98977 8.27032 2.00018C8.42754 2.07331 8.28814 2.03859 8.28547 2.04066C8.33499 2.05806 8.3651 2.06864 8.38507 2.07566C8.40524 2.08224 8.41557 2.08444 8.4249 2.08647C8.44347 2.09078 8.45849 2.09352 8.53957 2.13132C8.58186 2.15616 8.52472 2.13906 8.4983 2.13111C8.57026 2.16184 8.63204 2.20057 8.64139 2.19511C8.55637 2.1462 8.60351 2.14385 8.5724 2.11218C8.64122 2.14724 8.71137 2.17954 8.77842 2.21794L8.76267 2.22581C8.78523 2.23818 8.8186 2.24494 8.87122 2.263C8.89781 2.27151 8.92785 2.28532 8.96409 2.30328C9.00003 2.32175 9.04242 2.34408 9.08981 2.37595C9.25193 2.48004 9.41582 2.59617 9.57467 2.7194C9.7319 2.8447 9.8827 2.97842 10.0194 3.11535C10.009 3.11728 9.94683 3.06479 9.88491 3.01226C9.92186 3.04841 9.98027 3.10142 10.0103 3.13873C9.98175 3.1014 10.0137 3.12655 10.0441 3.1571C10.0749 3.18714 10.1068 3.21979 10.0838 3.19127C10.1115 3.21373 10.1394 3.23789 10.1674 3.26329C10.1948 3.28919 10.2213 3.31734 10.2482 3.34572C10.2749 3.3744 10.3023 3.40309 10.328 3.43349C10.3532 3.46431 10.3784 3.49523 10.4035 3.52596C10.4927 3.63617 10.5727 3.74857 10.6459 3.84065C10.1708 3.83783 9.50769 3.83088 9.04055 3.82838C9.03003 3.8076 9.01604 3.79638 9.01227 3.77653L8.99016 3.76733C8.93269 3.68406 8.68649 3.36844 8.62739 3.28557L8.63131 3.28769C8.53719 3.16438 8.35785 2.90159 8.25453 2.77801C8.25089 2.75057 8.22938 2.72387 8.2178 2.70051C8.22157 2.71529 8.21154 2.71608 8.2057 2.7065C8.1631 2.64019 8.19565 2.70684 8.14707 2.64344C8.08604 2.57379 7.90418 2.27288 7.86907 2.19863C7.82986 2.17188 7.812 2.11839 7.77916 2.08853L7.7851 2.08984C7.75413 2.05498 7.62854 1.82598 7.5947 1.78409L7.59632 1.79158C7.59049 1.78586 7.58631 1.78103 7.58319 1.77669C7.61277 1.78384 7.6419 1.79115 7.67016 1.79872C7.74118 1.81803 7.80881 1.83483 7.87034 1.85542ZM6.6759 1.65312C6.76134 1.65638 6.84664 1.66213 6.93091 1.66994C6.99109 1.78434 7.0482 1.89723 7.11983 2.00694C7.11761 2.01211 7.11573 2.00878 7.11181 2.00642C7.13855 2.03995 7.157 2.0731 7.18207 2.10318C7.18363 2.11493 7.1794 2.12109 7.1772 2.12624C7.1794 2.12107 7.21022 2.16499 7.24047 2.21073C7.25534 2.23376 7.27039 2.25704 7.28183 2.27476C7.29313 2.29258 7.30055 2.30601 7.30055 2.30601L7.31895 2.29745C7.34186 2.3326 7.30617 2.32013 7.33132 2.35011C7.36345 2.34751 7.36366 2.40594 7.38361 2.40904C7.38156 2.41 7.39108 2.42645 7.38296 2.43028C7.39908 2.4268 7.39649 2.44481 7.40635 2.4527C7.41232 2.454 7.40849 2.44752 7.41065 2.44227L7.43018 2.46232C7.43185 2.47401 7.42566 2.48117 7.4179 2.4723C7.45201 2.5356 7.62816 2.83206 7.67809 2.8917C7.68228 2.87698 7.6625 2.86148 7.67276 2.84379C7.69263 2.85511 7.68644 2.87081 7.70041 2.87231C7.68205 2.89393 7.71984 2.91327 7.70543 2.94148L7.72153 2.93778L7.7193 2.95148C7.78252 3.01728 7.73706 2.9643 7.77852 3.03239C7.80627 3.06929 7.83628 3.07547 7.84406 3.10113C7.84205 3.09788 7.84423 3.08416 7.85416 3.09186C7.84406 3.10113 7.87998 3.11275 7.87188 3.12524C7.87982 3.13398 7.89954 3.16636 7.90774 3.14531C7.90362 3.15585 7.91957 3.18587 7.90156 3.17379C7.90753 3.1835 7.91149 3.19416 7.91952 3.19864L7.91555 3.18366C7.93947 3.21392 7.93943 3.23936 7.96742 3.25059L7.9655 3.2347C7.97943 3.25304 7.99142 3.26814 7.98137 3.28596L7.9634 3.26962C7.9853 3.30089 7.99928 3.31922 8.02526 3.33996L8.01928 3.33031C8.05741 3.35332 8.18996 3.51919 8.23044 3.53639L8.23231 3.51417L8.26049 3.53358C8.25847 3.53039 8.21368 3.54735 8.21568 3.54208C8.24345 3.58072 8.35477 3.72939 8.43061 3.83617C8.26661 3.83579 8.25034 3.81853 8.0385 3.81166C8.07379 3.83804 7.78116 3.85218 7.66957 3.85385L7.67381 3.84812C7.50554 3.85208 7.12429 3.87388 6.84641 3.87665L6.85731 3.8623C6.72429 3.8708 6.52411 3.87192 6.34617 3.87154C6.34535 3.86965 6.34452 3.86776 6.34392 3.86574C6.34437 3.86759 6.34431 3.86967 6.34387 3.87154C6.33986 3.87154 6.33586 3.87152 6.3319 3.87152C6.32347 3.84699 6.30719 3.83763 6.30444 3.81709L6.28388 3.81004C6.234 3.73735 6.01711 3.46426 5.96508 3.39245L5.96872 3.39415C5.88575 3.28744 5.72868 3.05917 5.63619 2.95331C5.63421 2.92853 5.61504 2.90557 5.60521 2.88505C5.60802 2.89828 5.59836 2.89965 5.59326 2.89128C5.55597 2.83365 5.5836 2.89224 5.54039 2.83766C5.48569 2.77811 5.32684 2.51619 5.29684 2.45106C5.26058 2.42932 5.24611 2.38189 5.21604 2.35694L5.22167 2.35774C5.19374 2.32806 5.08437 2.12842 5.05382 2.09269L5.05501 2.09937C5.02361 2.07124 5.04332 2.06516 5.03129 2.03485C5.0164 2.0494 4.98787 2.02629 4.9794 2.01592L4.98342 2.01394C4.96976 1.99889 4.93024 1.97024 4.91031 1.94367L4.92043 1.93879C4.91719 1.93659 4.914 1.93386 4.91083 1.9308L4.91277 1.93007C4.97374 1.90731 5.02131 1.88861 5.05091 1.87539L4.9324 1.89346L5.03596 1.85274L5.08782 1.83233C5.10521 1.82596 5.12282 1.82036 5.1403 1.81434C5.12765 1.8179 5.1056 1.83795 5.08466 1.85967C5.06738 1.87735 5.05055 1.89423 5.03879 1.89996C5.05118 1.896 5.06458 1.89172 5.07951 1.88695C5.08834 1.88414 5.09761 1.8812 5.10729 1.87812C5.11708 1.8755 5.1273 1.87279 5.13792 1.86996C5.1804 1.85861 5.22941 1.84551 5.28399 1.83091C5.31129 1.82358 5.33998 1.81588 5.36996 1.80784C5.39999 1.80016 5.43101 1.79037 5.46389 1.78421C5.52936 1.77022 5.59953 1.75525 5.67344 1.73948C5.71026 1.73207 5.74857 1.72231 5.78669 1.71623C5.82482 1.71004 5.86376 1.70373 5.90338 1.6973C5.94286 1.69001 5.98361 1.68599 6.02481 1.68116C6.06606 1.67681 6.10767 1.67048 6.15013 1.66746C6.31978 1.6526 6.49792 1.64841 6.6759 1.65312ZM4.45446 6.06253C4.38872 6.02853 4.37645 6.01081 4.45104 6.03917C4.39459 6.01516 4.3113 5.97976 4.20784 5.93577C4.19491 5.93031 4.18164 5.92471 4.16809 5.91898C4.1547 5.91271 4.14102 5.9063 4.12705 5.89976C4.09912 5.88669 4.07002 5.87307 4.03989 5.85899C3.97963 5.83082 3.91522 5.80073 3.84745 5.76906C3.57894 5.6351 3.26033 5.46668 2.94777 5.28026C2.3221 4.90876 1.71495 4.48278 1.48957 4.32957C1.53836 4.38179 1.68138 4.47089 1.72093 4.52552C1.5947 4.45542 1.54973 4.40043 1.48959 4.37577C1.47708 4.34541 1.4134 4.29859 1.34454 4.24711C1.31017 4.22117 1.27446 4.19424 1.24308 4.16801C1.2274 4.15489 1.21278 4.14196 1.19998 4.1294L1.19527 4.1247C1.1936 4.12305 1.19488 4.12303 1.19488 4.12303L1.19619 4.12089C1.19717 4.11941 1.19839 4.11785 1.19985 4.11616C1.1954 4.12114 1.19038 4.1257 1.18476 4.12986C1.18682 4.12634 1.1895 4.12324 1.19279 4.1206C1.1853 4.1216 1.17686 4.11943 1.17224 4.11837C1.16739 4.11714 1.16577 4.11614 1.16577 4.11614C1.16754 4.1155 1.1761 4.11414 1.18632 4.10958C1.18705 4.10858 1.18742 4.10735 1.18778 4.10583L1.18836 4.10329L1.18869 4.10184L1.18886 4.10109L1.19357 4.09707C1.24323 4.05798 1.28641 4.02284 1.32616 3.99065C1.40337 3.92839 1.46825 3.87842 1.54229 3.83173C1.51639 3.8475 1.4669 3.8693 1.52722 3.82136C1.53811 3.8244 1.58221 3.78965 1.62906 3.753C1.67589 3.71631 1.72609 3.67902 1.74793 3.67461C1.8146 3.6263 2.03625 3.47821 1.94828 3.50901C1.99266 3.49392 2.19342 3.3674 2.08123 3.45383C2.14841 3.41035 2.21502 3.37059 2.26022 3.33444L2.17081 3.38547C2.28229 3.30868 2.37299 3.25762 2.45162 3.20905C2.53037 3.1607 2.59793 3.11678 2.66752 3.0629L2.57746 3.10621C2.71435 3.02175 2.8287 2.9505 2.89469 2.93825L2.75726 3.02983C2.81417 2.99527 2.86543 2.96414 2.91326 2.93509C2.96134 2.90675 3.00599 2.88043 3.04948 2.85482C3.13562 2.80233 3.21704 2.75271 3.31159 2.6951L3.24179 2.73178C3.35998 2.65499 3.74044 2.43428 4.13413 2.25223C4.23309 2.20823 4.33187 2.1643 4.42624 2.12234C4.43705 2.11732 4.44789 2.11262 4.45872 2.10808C4.49793 2.18245 4.53778 2.25585 4.58557 2.32711C4.58319 2.33196 4.58153 2.32906 4.57787 2.32719C4.60198 2.35584 4.61816 2.38466 4.64077 2.41029C4.64167 2.42087 4.63731 2.42674 4.63494 2.43159C4.63731 2.42674 4.66478 2.46457 4.69162 2.50409C4.70505 2.52383 4.71825 2.54405 4.72822 2.55948C4.73816 2.57491 4.74463 2.58663 4.74463 2.58663L4.76275 2.5776C4.78299 2.60802 4.74932 2.59908 4.77197 2.62465C4.80301 2.62014 4.80023 2.67325 4.81926 2.67473C4.81722 2.67575 4.82557 2.69006 4.81755 2.69407C4.83325 2.68981 4.82983 2.70636 4.83891 2.71288C4.84458 2.71367 4.84123 2.70803 4.84356 2.70311L4.8613 2.72004C4.8623 2.73056 4.85599 2.73749 4.84899 2.72993C4.87856 2.78519 5.03229 3.04332 5.07683 3.0945C5.08166 3.08082 5.0635 3.06798 5.07429 3.0512C5.09276 3.06021 5.08597 3.07491 5.0993 3.07537C5.08051 3.09629 5.11576 3.11141 5.1004 3.13806L5.11606 3.13363L5.11318 3.14625C5.17032 3.20207 5.12957 3.15674 5.16563 3.21611C5.19022 3.24796 5.21867 3.25161 5.22473 3.27451C5.223 3.27168 5.22583 3.25904 5.23493 3.26539C5.22474 3.27451 5.25856 3.28274 5.25009 3.29467C5.25725 3.30212 5.27437 3.33034 5.2834 3.31064C5.27888 3.32051 5.29248 3.34687 5.27589 3.337C5.28107 3.34549 5.28428 3.35495 5.29171 3.35851L5.28875 3.34508C5.30999 3.37115 5.30853 3.39434 5.33473 3.4028L5.33377 3.38843C5.3461 3.40427 5.35674 3.41727 5.34612 3.43417L5.32978 3.42043C5.34904 3.44754 5.36142 3.46335 5.38516 3.48061L5.37996 3.47218C5.41519 3.49073 5.53285 3.63361 5.57054 3.64679L5.5736 3.62638L5.59948 3.64231C5.59772 3.63952 5.55386 3.65787 5.55607 3.65293C5.57672 3.68123 5.64983 3.77762 5.71203 3.86288C5.36061 3.85322 4.93085 3.84123 4.54553 3.85457L4.2166 3.81268L4.16842 3.81662C4.16842 3.81662 3.63716 4.3102 4.30959 4.41744L4.29883 4.43176L4.43184 4.43028C4.5914 4.43778 4.66524 4.42133 4.65437 4.43564L4.43575 4.4333C4.59606 4.43789 4.48409 4.44519 4.42287 4.45315C4.48981 4.45471 4.55478 4.45662 4.60806 4.46118C4.63967 4.45575 4.58486 4.45515 4.55992 4.45198C4.64618 4.44715 4.76631 4.43399 4.87131 4.4409C5.03549 4.44269 4.88172 4.46418 5.07329 4.46625C5.30108 4.46937 5.52713 4.47278 5.75257 4.47616C5.73897 4.49875 5.72446 4.51855 5.71325 4.54114C5.70415 4.54531 5.6972 4.54325 5.69195 4.54266C5.70249 4.54387 5.59978 4.68914 5.59638 4.69017L5.61152 4.70357C5.59226 4.73135 5.58707 4.69831 5.57308 4.72673C5.58926 4.75313 5.54072 4.76746 5.54683 4.78501C5.54512 4.78351 5.5356 4.79552 5.52888 4.78961C5.53881 4.80233 5.52273 4.80454 5.52038 4.8147C5.52188 4.82003 5.52563 4.81526 5.53096 4.81579L5.52273 4.83704C5.51371 4.84127 5.50504 4.83779 5.50907 4.82913C5.47124 4.87315 5.30041 5.09259 5.27185 5.14859C5.286 5.14859 5.29038 5.12828 5.30962 5.13264C5.30877 5.15204 5.29296 5.1506 5.29775 5.1627C5.2717 5.15246 5.27191 5.18883 5.24207 5.18348L5.25213 5.1961L5.2397 5.1975C5.21203 5.26633 5.23674 5.21553 5.19757 5.26652C5.17863 5.29859 5.18645 5.32524 5.1683 5.3379C5.17017 5.33546 5.1826 5.33399 5.18044 5.34417C5.1683 5.3379 5.17411 5.37082 5.16012 5.36701C5.15624 5.37576 5.13765 5.40003 5.15882 5.40189C5.14823 5.40099 5.12978 5.42138 5.13224 5.40347C5.12663 5.41076 5.11941 5.41663 5.1191 5.42442L5.12997 5.41754C5.11489 5.44478 5.09353 5.45078 5.09617 5.47693L5.1087 5.47154C5.09931 5.48759 5.0918 5.50121 5.07252 5.49702L5.07847 5.47807C5.06169 5.50387 5.05232 5.51993 5.0461 5.54664L5.05163 5.53933C5.0486 5.57665 4.96643 5.72713 4.96914 5.76494L4.98865 5.76125L4.98442 5.78943C4.98625 5.78697 4.95271 5.75349 4.958 5.75391C4.92838 5.80078 4.77947 6.0477 4.74409 6.08573C4.72626 6.09878 4.72308 6.07656 4.72133 6.07513C4.71213 6.09912 4.72812 6.09245 4.71548 6.10973C4.71015 6.11323 4.70676 6.10265 4.70684 6.0988C4.70317 6.10757 4.6943 6.11219 4.69951 6.1164C4.71021 6.10938 4.72237 6.12312 4.73468 6.1252L4.72258 6.1418C4.68381 6.12741 4.63921 6.10763 4.59575 6.09483C4.566 6.08991 4.61408 6.10784 4.63286 6.12106C4.57347 6.1014 4.51348 6.08377 4.45446 6.06253ZM10.5466 4.55172C10.5206 4.59422 10.4921 4.63786 10.4616 4.67565C10.3695 4.79578 10.4373 4.66976 10.3291 4.80844C10.0359 5.16728 9.69401 5.47402 9.31294 5.72336C8.93117 5.97169 8.51223 6.16452 8.06438 6.29982C8.04227 6.30009 8.06667 6.29316 8.09177 6.28302C8.02376 6.30519 7.95713 6.32485 7.89137 6.34259C7.90755 6.31541 7.92098 6.29314 7.93004 6.27881L7.92971 6.28298C8.00237 6.15942 8.16496 5.91457 8.23375 5.78241C8.25674 5.77029 8.2719 5.74243 8.28812 5.72455C8.27642 5.73267 8.27171 5.72402 8.27794 5.7157C8.32 5.65627 8.27363 5.70687 8.31063 5.64297C8.34819 5.56596 8.54327 5.30606 8.59504 5.25047C8.6031 5.2068 8.64355 5.17347 8.65684 5.13441L8.65806 5.14015C8.67664 5.10119 8.82958 4.91434 8.85317 4.87044L8.84719 4.87432C8.86314 4.83271 8.8759 4.84904 8.90072 4.82505C8.88153 4.81679 8.89367 4.78003 8.90064 4.76765L8.90395 4.77069C8.91355 4.75142 8.92719 4.70189 8.94568 4.67188L8.95391 4.67951C8.9614 4.64877 8.99776 4.60709 9.00916 4.58935C9.02693 4.56908 9.05325 4.54493 9.07767 4.51715C9.30923 4.51014 10.3574 4.51184 10.5685 4.5143C10.5675 4.51624 10.5665 4.51809 10.5655 4.52005C10.5593 4.53046 10.553 4.54102 10.5466 4.55172ZM10.5804 4.51449C10.5822 4.51451 10.5838 4.51455 10.5854 4.51457C10.5832 4.51663 10.5816 4.51655 10.5804 4.51449Z" fill="#375A54"/>
</svg>
