<svg width="67" height="14" viewBox="0 0 67 14" fill="none" xmlns="http://www.w3.org/2000/svg">
<path d="M10.0938 3.41626C10.0896 3.41748 10.0849 3.41886 10.0809 3.42005C10.0846 3.41995 10.089 3.4184 10.0938 3.41626Z" fill="#AA7859"/>
<path d="M3.25023 6.82912C3.25444 6.82655 3.25843 6.82405 3.26172 6.82178C3.2578 6.82421 3.25408 6.82669 3.25023 6.82912Z" fill="#AA7859"/>
<path d="M8.21202 7.89045C8.365 7.91846 8.62899 7.92175 8.87891 7.92699C8.68658 7.9 8.48208 7.888 8.21202 7.89045Z" fill="#AA7859"/>
<path d="M8.88333 7.92756C8.88412 7.92743 8.88576 7.92733 8.88672 7.92723C8.88369 7.9272 8.88155 7.9271 8.87905 7.927C8.88073 7.92727 8.88204 7.92733 8.88333 7.92756Z" fill="#AA7859"/>
<path d="M34.5829 8.02954C34.5886 8.0299 34.594 8.03017 34.5986 8.0302C34.5933 8.02994 34.5882 8.0298 34.5829 8.02954Z" fill="#AA7859"/>
<path d="M42.7295 7.92017C42.7249 7.92017 42.7198 7.92017 42.7153 7.92017C42.7191 7.92112 42.7241 7.92089 42.7295 7.92017Z" fill="#AA7859"/>
<path d="M56.0934 13.7739C56.1276 13.7446 56.1666 13.7112 56.2061 13.6774C56.1672 13.7086 56.1282 13.741 56.0934 13.7739Z" fill="#AA7859"/>
<path d="M56.1738 13.665C56.0836 13.7391 55.9939 13.8123 55.9623 13.831C55.998 13.8237 56.1792 13.6829 56.2649 13.5979L56.2522 13.5564C56.4565 13.3667 56.319 13.5303 56.5268 13.3537C56.5602 13.3667 56.3736 13.5336 56.2067 13.6776C56.3623 13.5523 56.5295 13.4408 56.5674 13.3651C56.7234 13.2572 56.5796 13.4062 56.7654 13.2748C56.884 13.1681 57.0246 13.011 57.1842 12.9118L57.1856 12.9179C57.3754 12.7933 57.503 12.6794 57.6274 12.5687C57.7514 12.458 57.8759 12.3543 58.0526 12.244L58.0242 12.2782C58.0892 12.2419 58.1748 12.1768 58.2727 12.1032C58.3719 12.0311 58.4841 11.9514 58.5978 11.883C58.5324 11.9213 58.4634 11.9412 58.5905 11.8472C58.7213 11.7687 58.8241 11.6938 58.9224 11.6291C59.0202 11.5644 59.1099 11.5054 59.2095 11.4533L59.3664 11.3105C59.4755 11.236 59.6298 11.1408 59.8119 11.0219C59.9039 10.9633 60.0017 10.8978 60.1086 10.8311C60.2154 10.7648 60.329 10.6947 60.4476 10.6211C60.683 10.4713 60.9467 10.3191 61.2186 10.1568C61.3539 10.075 61.4964 9.99806 61.6375 9.91665C61.7804 9.83687 61.9215 9.75264 62.0676 9.67572C62.2128 9.59717 62.3584 9.51865 62.5022 9.44091C62.6451 9.36236 62.7917 9.29074 62.9328 9.21708C63.0748 9.14505 63.2119 9.07098 63.3494 9.00548C63.4856 8.93872 63.6181 8.87404 63.7448 8.81217C63.8084 8.78124 63.8706 8.75113 63.931 8.72142C63.9923 8.69334 64.0519 8.66567 64.1096 8.63882C64.2286 8.58389 64.3404 8.5326 64.4432 8.48497C64.4928 8.4622 64.541 8.44021 64.5888 8.41866C64.6357 8.39829 64.6812 8.37838 64.7263 8.35883C64.8174 8.32059 64.904 8.28436 64.986 8.25016C65.1492 8.18181 65.2935 8.12198 65.4153 8.0711L65.3445 8.1057C65.6272 7.98809 65.9378 7.85542 66.2805 7.71626L66.4216 7.65848C66.8035 7.50303 66.8017 7.01346 66.4193 6.86006L66.1772 6.76281C65.752 6.58863 65.3124 6.40794 64.8647 6.22442C64.752 6.17843 64.6433 6.13285 64.5324 6.08363C64.4572 6.04984 64.3814 6.01609 64.3056 5.98189C64.1907 5.93063 64.0752 5.87893 63.9598 5.82726C63.7294 5.72186 63.5008 5.612 63.2731 5.50578C62.3673 5.07198 61.5246 4.6166 60.9268 4.28495C60.8235 4.20558 60.6914 4.12542 60.5607 4.04038C60.4295 3.95656 60.2956 3.87392 60.1824 3.79948C60.3032 3.88861 60.246 3.87923 60.1459 3.81658C59.9696 3.70913 59.8807 3.64972 59.8311 3.62123C59.782 3.59193 59.7739 3.59071 59.7653 3.58948C59.7477 3.58704 59.7283 3.58581 59.3721 3.36565C59.2211 3.27003 58.9925 3.1219 58.7183 2.93712C58.5835 2.84269 58.4365 2.73974 58.2815 2.63151C58.2427 2.60425 58.2035 2.57658 58.1638 2.5485C58.1245 2.52002 58.0853 2.49072 58.0452 2.46142C57.9658 2.40281 57.8847 2.34258 57.8026 2.28194C57.7205 2.22089 57.6367 2.15985 57.5533 2.09638C57.4712 2.03248 57.3882 1.9678 57.3048 1.90308L57.1799 1.80583C57.1078 1.74967 57.0284 1.68985 56.9563 1.63043C56.8089 1.51241 56.6614 1.38627 56.5149 1.2654C56.2227 1.02083 55.9292 0.780718 55.6537 0.544683L55.6456 0.537782C55.3404 0.278157 54.839 0.466571 54.8282 0.845029C54.8174 1.22838 54.8084 1.53889 54.8021 1.74763C54.8115 1.95314 54.8151 2.16192 54.8156 2.37433C54.8151 2.48015 54.8147 2.58756 54.8147 2.69541C54.8138 2.76622 54.8133 2.83783 54.8124 2.90905C54.8093 3.1528 54.8043 3.39577 54.8165 3.6094L54.8057 3.56627C54.8152 3.95533 54.7552 5.87958 54.7424 6.78208C54.4879 6.7933 54.2486 6.80747 53.9383 6.79048L53.9996 6.78089C53.7987 6.76356 53.4029 6.78521 53.0404 6.76638C53.1439 6.77249 53.2336 6.79381 53.0157 6.79673C52.5989 6.77735 52.3145 6.79503 52.0098 6.77157L51.7172 6.79938C50.266 6.79027 44.5333 6.81678 43.0754 6.81777L43.1325 6.81335C40.9112 6.82219 36.3513 6.8088 34.0554 6.84248C33.7004 6.81355 33.2107 6.81896 32.8403 6.81019C33.0462 6.82239 32.9756 6.84214 32.8148 6.84061C31.6861 6.83463 32.7386 6.85985 31.597 6.86906C30.2826 6.89197 25.2525 6.84993 24.0858 6.82314C23.5921 6.85455 23.0022 6.84068 22.4737 6.8454C22.4204 6.75907 22.368 6.69248 22.3256 6.65876C22.1911 6.44315 22.3755 6.66331 22.2107 6.404C22.1409 6.31806 22.0544 6.22235 21.9694 6.12136C21.9276 6.07037 21.8829 6.0202 21.8399 5.96959C21.7971 5.9188 21.7564 5.86748 21.7195 5.81608L21.7269 5.81642C21.6811 5.75463 21.6363 5.69755 21.5896 5.64609C21.5438 5.59398 21.4993 5.54527 21.4557 5.49898C21.37 5.40523 21.2824 5.32559 21.1966 5.24693C21.1108 5.16821 21.0277 5.08986 20.9363 5.00984C20.8913 4.96926 20.8457 4.92701 20.7992 4.88207C20.7528 4.8369 20.7052 4.78934 20.6533 4.74043L20.7074 4.77394C20.6373 4.70175 20.5232 4.60344 20.392 4.49369C20.3249 4.44022 20.2539 4.38359 20.1816 4.32601C20.1461 4.29664 20.1102 4.26703 20.0744 4.23749C20.0382 4.2084 20.0019 4.17937 19.9661 4.15065C20.0466 4.21778 20.1046 4.28797 19.9245 4.15918C19.8425 4.0931 19.7666 4.03253 19.6927 3.97865C19.6173 3.92647 19.5469 3.87773 19.4794 3.83103C19.3455 3.73605 19.2162 3.65842 19.0919 3.56528C19.0023 3.51885 18.909 3.47792 18.817 3.43574C18.4978 3.24689 17.9248 2.93896 17.1835 2.65299C16.8126 2.51155 16.4023 2.37066 15.9634 2.2573C15.5255 2.14186 15.0624 2.04604 14.5931 1.97905C14.1235 1.91337 13.6481 1.8787 13.1892 1.87194C12.9597 1.86623 12.7343 1.87486 12.5157 1.8819C12.4065 1.88917 12.2989 1.89631 12.1933 1.90335C12.1669 1.90518 12.1406 1.90702 12.1145 1.90882C12.0884 1.91157 12.0624 1.91433 12.0366 1.91705C11.9849 1.92255 11.9338 1.92799 11.8832 1.93336C11.8326 1.9388 11.7826 1.94417 11.7332 1.94947C11.6837 1.95474 11.6352 1.96327 11.5872 1.96994C11.4912 1.98418 11.3977 1.99805 11.3069 2.01151C11.1317 2.04529 10.9671 2.07708 10.8152 2.10638C10.7393 2.12113 10.6667 2.13524 10.5974 2.1487C10.5291 2.16501 10.4642 2.18051 10.403 2.19516C10.2806 2.2247 10.1729 2.25067 10.0818 2.27266L10.1376 2.25468C10.0683 2.27161 9.99664 2.28908 9.92287 2.3071C9.84905 2.32498 9.77531 2.34877 9.69845 2.37022C9.54525 2.41447 9.38421 2.46104 9.21636 2.50951C9.05069 2.56247 8.87987 2.62073 8.70275 2.67923C8.52439 2.73549 8.34656 2.80476 8.16304 2.87325C7.42946 3.14787 6.64964 3.48999 5.89688 3.87018C4.39029 4.63101 2.98274 5.51924 2.06451 6.13183C1.98825 6.17251 1.90652 6.21935 1.82213 6.2697C1.79968 6.28326 1.77701 6.29696 1.75415 6.31079C1.71551 6.33499 1.67657 6.3594 1.63741 6.38394C1.55888 6.43309 1.47991 6.4835 1.4012 6.53449C1.08395 6.73976 0.763878 6.9469 0.488167 7.12529C0.810799 6.92787 0.73349 7.00326 0.501427 7.15428C0.399445 7.22114 0.309731 7.27991 0.230835 7.33162C0.306946 7.38335 0.376991 7.42798 0.435478 7.46656C0.554375 7.54355 0.636024 7.59637 0.692856 7.63319C0.807869 7.7064 0.826088 7.7148 0.845634 7.72343C0.884201 7.73948 0.93045 7.76212 1.73958 8.28194C1.87997 8.36995 2.06997 8.48902 2.29695 8.63127C2.51485 8.76679 2.76593 8.92679 3.0454 9.09671C3.18509 9.18169 3.32823 9.27272 3.47985 9.36232C3.63083 9.4526 3.78618 9.54547 3.94439 9.64007C4.10313 9.73412 4.26752 9.82691 4.4316 9.92219C4.59505 10.0183 4.76373 10.1107 4.93195 10.2032C5.26581 10.3913 5.60886 10.5669 5.93609 10.7374C6.10232 10.8194 6.26505 10.8995 6.42254 10.9772C6.46194 10.9966 6.50099 11.0159 6.5397 11.035C6.57909 11.0531 6.61811 11.0711 6.65679 11.0889C6.73414 11.1245 6.80999 11.1593 6.88411 11.1933C6.95822 11.2274 7.03061 11.2607 7.10103 11.2931C7.13628 11.3092 7.17104 11.3251 7.20531 11.3409C7.24018 11.3556 7.27453 11.3702 7.30831 11.3845C7.44347 11.4418 7.56982 11.4955 7.68574 11.5447C7.74366 11.5693 7.79898 11.5929 7.85145 11.6153C7.90485 11.6361 7.95539 11.6558 8.0028 11.6743C8.09766 11.7114 8.18011 11.7436 8.24842 11.7704C8.32457 11.793 8.40245 11.8175 8.48169 11.8435C8.5604 11.8703 8.64381 11.8923 8.72621 11.9186C8.89199 11.9694 9.0609 12.0247 9.22992 12.0789C9.57372 12.1744 9.91232 12.2799 10.2237 12.3336L10.1594 12.3284C10.2419 12.346 10.372 12.3757 10.5379 12.4145C10.6202 12.4357 10.7145 12.45 10.815 12.47C10.9159 12.4892 11.0244 12.5098 11.139 12.5316C11.5987 12.6188 12.174 12.6905 12.7518 12.7178C13.3305 12.7466 13.915 12.7294 14.401 12.6846C14.8872 12.6403 15.2753 12.5758 15.4701 12.5346L15.3636 12.5489C15.5329 12.5101 15.6543 12.4847 15.7501 12.4672C15.8452 12.4465 15.9147 12.4345 15.9801 12.4247C16.0455 12.4145 16.1073 12.4083 16.1855 12.3943C16.2635 12.3798 16.3588 12.3603 16.4924 12.3285C16.4712 12.322 16.4908 12.306 16.5353 12.2848C16.5795 12.2625 16.6479 12.2332 16.7257 12.2029C16.8032 12.1718 16.8911 12.1425 16.9706 12.1106C17.0504 12.0793 17.1242 12.0515 17.1769 12.0325L17.1729 12.0447C17.2125 12.0297 17.2583 12.0123 17.3092 11.993C17.3592 11.9716 17.4141 11.9481 17.4729 11.9229C17.5315 11.8976 17.5939 11.8705 17.6591 11.8424C17.7237 11.8131 17.7899 11.7804 17.8581 11.7483C17.9259 11.7155 17.9961 11.6835 18.0652 11.6487C18.1338 11.6132 18.2029 11.5774 18.2713 11.542C18.4095 11.4738 18.5391 11.3977 18.6607 11.3331L18.656 11.365C18.7554 11.3075 18.8734 11.2326 19.0023 11.1553C19.0345 11.136 19.0674 11.1164 19.1005 11.0966C19.1337 11.0766 19.1659 11.0547 19.1991 11.0338C19.2651 10.9916 19.3319 10.949 19.3979 10.9069C19.4648 10.8661 19.5267 10.8206 19.5882 10.779C19.6493 10.7371 19.7081 10.6966 19.7631 10.6589C19.8714 10.5815 19.9616 10.5113 20.0266 10.4622C20.3249 10.2392 20.6972 9.94473 21.0528 9.59312C21.4082 9.24203 21.7466 8.8361 22.0071 8.43127L22.1141 8.31321C22.1501 8.27395 22.1821 8.23249 22.2164 8.19207L22.3654 8.01171C22.5693 8.01759 22.7619 8.02446 22.8486 8.00896C22.8443 8.01409 23.1127 8.01671 23.0956 8.03693C23.178 8.00196 23.3718 8.02942 23.5411 8.02089C23.6025 8.01127 23.4961 8.01025 23.4502 7.99954L23.8381 7.98806C23.9897 7.99975 24.027 8.02052 23.8621 8.02395C24.8756 8.03904 29.7414 8.08462 30.8333 8.06974C30.693 8.04285 30.3559 8.05995 30.2279 8.01787C30.5166 7.99516 30.6529 8.02708 30.7802 8.00281C30.8908 8.06522 31.4145 8.01923 31.6329 8.08269L31.7158 8.04771L31.8592 8.0696C33.1287 8.03608 32.1493 8.05243 33.2746 8.06348C33.9159 8.05971 34.226 8.01321 34.5813 8.02976C34.5205 8.02606 34.4158 8.00726 34.5693 7.99948C34.5979 8.03044 35.0185 7.9784 35.1006 8.00981C35.2658 8.00631 35.8012 8.01161 35.6201 7.96892C35.711 7.99023 36.1886 8.00002 35.9042 8.01766C36.0653 8.01929 36.2214 8.02589 36.3374 8.01685L36.1305 8.00458C36.6748 7.99978 36.9713 8.0332 37.3258 7.99584L37.1248 7.97854C37.4502 7.97667 37.7223 7.97415 37.8499 8.01627L37.5159 8.0283C38.0555 8.02854 38.3809 8.0266 38.8307 8.00546L38.6702 8.00393C39.2433 7.96358 42.2409 7.93642 42.769 7.8854L42.5259 7.85236L42.98 7.82615C42.9311 7.82568 42.7894 7.91283 42.7306 7.92028C43.7377 7.91953 48.7536 7.90695 49.6477 7.93091C50.0102 7.94978 49.7128 7.98258 49.7086 7.98772C50.1498 7.97667 49.8991 7.95376 50.2742 7.95746C50.3765 7.96355 50.2529 7.98285 50.1953 7.98734C50.3597 7.98391 50.5121 7.99553 50.5247 7.98037C50.3192 7.9681 50.4063 7.9281 50.3194 7.90172L50.8019 7.90637L50.7804 7.93173C50.888 7.93275 51.0535 7.8629 51.5274 7.87772C52.327 7.89067 53.1956 7.88387 53.9996 7.89176C53.9871 7.90695 53.8182 7.91555 53.649 7.92408C53.7568 7.92514 53.9211 7.92164 54.0204 7.93282C53.8263 7.90542 54.3579 7.91572 54.2061 7.90399C54.3757 7.88652 54.5598 7.87911 54.7482 7.87619C54.7843 7.96477 54.8083 8.23446 54.8133 8.35319L54.8011 8.34748C54.8137 8.57658 54.8696 9.09546 54.8827 9.47351L54.8525 9.45886C54.8895 9.77423 54.8854 10.3676 54.8922 10.5942C54.8877 11.1131 54.848 11.9132 54.8981 12.6062L54.8882 13.1193C54.8771 13.7252 55.6638 14.0593 56.1738 13.665ZM16.5389 8.35224C16.5111 8.38929 16.4823 8.42634 16.4601 8.45431C16.438 8.48236 16.4224 8.50126 16.4205 8.5018L16.4499 8.52583C16.4068 8.58219 16.4004 8.51876 16.368 8.57566C16.3978 8.62481 16.2964 8.65877 16.3067 8.69201C16.3034 8.68933 16.2823 8.71384 16.2692 8.7032C16.288 8.72658 16.2547 8.73294 16.2486 8.75293C16.251 8.76306 16.2593 8.75333 16.2702 8.75371L16.2506 8.79596C16.2315 8.80534 16.2142 8.7997 16.2235 8.78236C16.1403 8.87254 15.7624 9.32041 15.6973 9.43306C15.7262 9.43122 15.7377 9.39118 15.7766 9.3972C15.7725 9.43499 15.7402 9.43421 15.7486 9.45712C15.6964 9.4406 15.6924 9.51124 15.632 9.50475L15.6511 9.528L15.6254 9.53235C15.5603 9.66967 15.6171 9.56773 15.5307 9.67191C15.488 9.73673 15.5008 9.78755 15.4621 9.81451C15.4662 9.80951 15.4918 9.80506 15.4862 9.82511C15.4621 9.81451 15.47 9.87773 15.4419 9.87216C15.4329 9.8897 15.3919 9.93929 15.435 9.94014C15.4135 9.93977 15.3732 9.98181 15.3804 9.94666C15.368 9.96155 15.3526 9.97396 15.3511 9.98912L15.3741 9.9743C15.34 10.0293 15.2956 10.0437 15.2979 10.0943L15.3241 10.0821C15.303 10.1145 15.286 10.142 15.2471 10.1364L15.2615 10.0988C15.2241 10.1512 15.203 10.1837 15.1872 10.2364L15.1993 10.2215C15.1887 10.2945 15.0031 10.5981 15.0044 10.6714L15.0446 10.6617L15.0327 10.7171C15.0367 10.7121 14.9721 10.6513 14.9828 10.6515C14.9168 10.7466 14.5846 11.2475 14.5084 11.3265C14.4706 11.3544 14.4666 11.3115 14.4631 11.3089C14.4417 11.357 14.4751 11.3418 14.4474 11.3772C14.4361 11.3847 14.4304 11.3645 14.4309 11.357C14.4225 11.3746 14.4039 11.3848 14.414 11.3923C14.4366 11.3772 14.4599 11.4023 14.4848 11.4047L14.4493 11.4502L14.4323 11.4376C14.4284 11.4427 14.4361 11.4563 14.4398 11.4736C14.3932 11.4711 14.3682 11.4656 14.3425 11.4609C14.3531 11.4627 14.318 11.468 14.2483 11.4762C14.2134 11.48 14.1699 11.4848 14.1192 11.4904C14.0938 11.4931 14.0666 11.4959 14.0378 11.4989C14.0088 11.5008 13.9782 11.5029 13.9462 11.505C13.818 11.5133 13.6664 11.5248 13.5019 11.527C13.3376 11.5341 13.161 11.5301 12.9833 11.529C12.6281 11.518 12.2695 11.4922 11.999 11.4571C11.9651 11.4533 11.9326 11.4496 11.9015 11.4461C11.8707 11.4414 11.8413 11.437 11.8136 11.4329C11.7582 11.4246 11.7095 11.4173 11.6689 11.4111C11.5877 11.3989 11.5388 11.3913 11.5332 11.3888L11.4892 11.4272C11.2175 11.3761 11.181 11.356 11.1495 11.338C11.1337 11.329 11.1191 11.3206 11.077 11.3093C11.056 11.3036 11.0281 11.2972 10.9897 11.2896C10.9513 11.2823 10.9024 11.2739 10.8403 11.2595C10.7481 11.2668 10.5788 11.2289 10.4028 11.1836C10.5205 11.0048 10.653 10.8 10.7044 10.7272L10.7042 10.7339C10.8286 10.5435 11.1093 10.1679 11.2244 9.96251C11.2663 9.94558 11.2919 9.90241 11.3204 9.87542C11.2993 9.88722 11.2896 9.8727 11.3004 9.86002C11.373 9.76889 11.2914 9.8453 11.354 9.74642C11.4166 9.6266 11.7542 9.22887 11.8451 9.14478C11.8554 9.07516 11.9274 9.02574 11.948 8.96411L11.9509 8.97349C11.9816 8.91265 12.2469 8.6274 12.286 8.55894L12.2752 8.56458C12.3002 8.49901 12.326 8.52682 12.3698 8.49072C12.3329 8.47528 12.3514 8.41709 12.363 8.39785L12.3695 8.40312C12.3853 8.37297 12.4052 8.29435 12.4362 8.24775L12.4525 8.26104C12.4629 8.21209 12.5261 8.14853 12.5453 8.12106C12.5828 8.0836 12.643 8.0384 12.6911 7.98367C13.803 7.99764 14.915 8.00862 16.0539 8.00814C16.0993 8.01878 16.0451 8.01827 15.9874 8.02286C16.2777 8.01831 16.5523 8.01715 16.8204 8.0161C16.813 8.02562 16.8054 8.03496 16.7981 8.04462C16.7873 8.04414 16.7916 8.03921 16.7926 8.03167C16.7554 8.09319 16.7125 8.14149 16.6799 8.19826C16.6607 8.2075 16.6466 8.20437 16.6359 8.2039C16.6466 8.20424 16.5945 8.27817 16.5389 8.35224ZM22.3563 6.72694C22.3805 6.75217 22.4125 6.79156 22.4467 6.84122C22.4477 6.84258 22.4487 6.84411 22.4497 6.84547C22.4356 6.84561 22.4217 6.84574 22.4077 6.84591C22.4074 6.84534 22.4073 6.84496 22.407 6.84435C22.3999 6.83082 22.3903 6.81284 22.3754 6.78905C22.3599 6.76553 22.3396 6.73589 22.3128 6.69805C22.3169 6.6902 22.3325 6.70159 22.3563 6.72694ZM15.6359 3.33788C15.7568 3.37265 15.8695 3.40199 15.9685 3.43628C16.068 3.46898 16.1567 3.49818 16.2329 3.52324C16.3078 3.55158 16.3703 3.57524 16.4188 3.59363C16.7265 3.72283 16.4537 3.66148 16.4484 3.66515C16.5454 3.69588 16.6043 3.71457 16.6434 3.72698C16.6829 3.7386 16.7031 3.74248 16.7214 3.74608C16.7577 3.7537 16.7871 3.75852 16.9458 3.82531C17.0286 3.8692 16.9167 3.83898 16.865 3.82494C17.0059 3.87923 17.1268 3.94765 17.1451 3.938C16.9787 3.85159 17.071 3.84744 17.0101 3.79149C17.1448 3.85343 17.2821 3.9105 17.4133 3.97834L17.3825 3.99225C17.4267 4.0141 17.492 4.02603 17.595 4.05795C17.647 4.07297 17.7058 4.09738 17.7767 4.12909C17.8471 4.16173 17.9301 4.20119 18.0228 4.25748C18.3401 4.44137 18.6609 4.64654 18.9719 4.86426C19.2796 5.08561 19.5748 5.32185 19.8424 5.56377C19.8219 5.56716 19.7003 5.47443 19.5791 5.38164C19.6514 5.44551 19.7658 5.53915 19.8245 5.60506C19.7687 5.53912 19.8313 5.58355 19.8907 5.63753C19.951 5.69059 20.0134 5.74827 19.9685 5.69789C20.0226 5.73756 20.0772 5.78025 20.132 5.82512C20.1858 5.87087 20.2375 5.9206 20.2903 5.97074C20.3424 6.02142 20.3961 6.0721 20.4464 6.12581C20.4957 6.18026 20.5451 6.23489 20.5942 6.28917C20.7687 6.48387 20.9254 6.68245 21.0687 6.84513C20.1387 6.84014 18.8408 6.82786 17.9264 6.82345C17.9058 6.78674 17.8784 6.76692 17.871 6.73184L17.8278 6.71559C17.7153 6.56848 17.2334 6.01089 17.1177 5.86449L17.1254 5.86822C16.9411 5.65037 16.5901 5.18612 16.3879 4.9678C16.3808 4.91932 16.3387 4.87214 16.316 4.83088C16.3234 4.85698 16.3037 4.85838 16.2923 4.84145C16.2089 4.72432 16.2726 4.84206 16.1775 4.73006C16.0581 4.60701 15.7021 4.07539 15.6334 3.94422C15.5566 3.89697 15.5217 3.80247 15.4574 3.74972L15.469 3.75203C15.4084 3.69044 15.1626 3.28587 15.0964 3.21187L15.0995 3.2251C15.0881 3.215 15.0799 3.20647 15.0738 3.19879C15.1317 3.21143 15.1887 3.22435 15.2441 3.23771C15.3831 3.27184 15.5154 3.30151 15.6359 3.33788ZM13.2979 2.9805C13.4652 2.98624 13.6321 2.9964 13.7971 3.0102C13.9149 3.21232 14.0267 3.41174 14.1669 3.60556C14.1625 3.61471 14.1588 3.60882 14.1512 3.60464C14.2035 3.66389 14.2396 3.72246 14.2887 3.77559C14.2917 3.79636 14.2835 3.80723 14.2792 3.81634C14.2835 3.8072 14.3438 3.8848 14.403 3.9656C14.4321 4.00628 14.4616 4.04741 14.484 4.07872C14.5061 4.1102 14.5207 4.13205 14.5206 4.13392L14.5566 4.1188C14.6015 4.1809 14.5316 4.15887 14.5808 4.21183C14.6437 4.20724 14.6441 4.31047 14.6832 4.31594C14.6792 4.31764 14.6978 4.34671 14.6819 4.35347C14.7135 4.34732 14.7084 4.37913 14.7277 4.39307C14.7394 4.39538 14.7319 4.38393 14.7361 4.37465L14.7743 4.41007C14.7776 4.43073 14.7655 4.44338 14.7503 4.42771C14.8171 4.53954 15.1618 5.06328 15.2596 5.16865C15.2678 5.14265 15.2291 5.11525 15.2491 5.08401C15.288 5.104 15.2759 5.13174 15.3033 5.13439C15.2673 5.17259 15.3413 5.20675 15.3131 5.25658L15.3446 5.25006L15.3402 5.27426C15.464 5.39051 15.375 5.2969 15.4562 5.41719C15.5105 5.48239 15.5692 5.4933 15.5844 5.53864C15.5805 5.5329 15.5848 5.50867 15.6042 5.52226C15.5844 5.53865 15.6547 5.55918 15.6389 5.58124C15.6544 5.59667 15.693 5.65388 15.7091 5.61669C15.701 5.63532 15.7322 5.68834 15.697 5.667C15.7087 5.68416 15.7164 5.70299 15.7321 5.71091L15.7244 5.68443C15.7712 5.7379 15.7711 5.78284 15.8259 5.80269L15.8221 5.77461C15.8494 5.80701 15.8729 5.83369 15.8532 5.86517L15.818 5.83631C15.8609 5.89154 15.8883 5.92393 15.9391 5.96058L15.9274 5.94352C16.002 5.98417 16.2615 6.27721 16.3407 6.3076L16.3444 6.26833L16.3995 6.30263C16.3956 6.29699 16.3079 6.32697 16.3118 6.31766C16.3662 6.38591 16.5841 6.64856 16.7325 6.83721C16.4115 6.83653 16.3797 6.80604 15.965 6.79391C16.0341 6.84051 15.4613 6.86549 15.2429 6.86845L15.2512 6.85832C14.9218 6.86532 14.1756 6.90384 13.6317 6.90873L13.653 6.88337C13.3926 6.8984 13.0008 6.90037 12.6526 6.89969C12.6509 6.89636 12.6493 6.89303 12.6481 6.88946C12.649 6.89272 12.6489 6.89639 12.648 6.89969C12.6402 6.89969 12.6324 6.89965 12.6246 6.89965C12.6081 6.85632 12.5762 6.8398 12.5709 6.80349L12.5306 6.79105C12.433 6.66263 12.0084 6.18016 11.9066 6.05331L11.9137 6.0563C11.7513 5.86778 11.4439 5.46451 11.2629 5.27749C11.259 5.23371 11.2215 5.19316 11.2022 5.15689C11.2077 5.18027 11.1888 5.18269 11.1788 5.1679C11.1058 5.0661 11.1599 5.1696 11.0753 5.07317C10.9683 4.96796 10.6574 4.50524 10.5986 4.39018C10.5276 4.35177 10.4993 4.26798 10.4405 4.2239L10.4515 4.22532C10.3968 4.17288 10.1828 3.82018 10.123 3.75706L10.1253 3.76886C10.0638 3.71916 10.1024 3.70842 10.0789 3.65488C10.0497 3.68058 9.99386 3.63976 9.97729 3.62144L9.98516 3.61794C9.95842 3.59135 9.88106 3.54074 9.84205 3.4938L9.86185 3.48517C9.85553 3.48129 9.84928 3.47646 9.84306 3.47106C9.84431 3.47065 9.84563 3.47021 9.84687 3.46977C9.96621 3.42956 10.0593 3.39651 10.1173 3.37316L9.88528 3.40508L10.088 3.33315L10.1895 3.29709C10.2235 3.28584 10.258 3.27595 10.2922 3.26531C10.2675 3.2716 10.2243 3.30702 10.1833 3.34539C10.1495 3.37663 10.1166 3.40644 10.0935 3.41657C10.1178 3.40957 10.144 3.40202 10.1732 3.39359C10.1905 3.38863 10.2087 3.38343 10.2276 3.37799C10.2468 3.37337 10.2668 3.36857 10.2876 3.36358C10.3707 3.34352 10.4666 3.32038 10.5735 3.29458C10.6269 3.28163 10.6831 3.26803 10.7417 3.25382C10.8005 3.24026 10.8612 3.22296 10.9256 3.21208C11.0538 3.18737 11.1911 3.16092 11.3358 3.13305C11.4078 3.11996 11.4828 3.10273 11.5574 3.09199C11.6321 3.08104 11.7083 3.06989 11.7858 3.05854C11.8631 3.04566 11.9429 3.03855 12.0235 3.03002C12.1043 3.02234 12.1857 3.01116 12.2688 3.00582C12.6009 2.97958 12.9496 2.97217 13.2979 2.9805ZM8.9498 10.7704C8.82112 10.7104 8.79709 10.6791 8.9431 10.7292C8.8326 10.6868 8.66957 10.6242 8.46708 10.5465C8.44176 10.5369 8.41578 10.527 8.38927 10.5168C8.36306 10.5058 8.33628 10.4944 8.30894 10.4829C8.25426 10.4598 8.19732 10.4357 8.13834 10.4108C8.02039 10.3611 7.8943 10.3079 7.76166 10.252C7.23608 10.0153 6.61246 9.71777 6.00068 9.38843C4.776 8.73212 3.5876 7.97956 3.14645 7.70888C3.24195 7.80114 3.52188 7.95855 3.59931 8.05505C3.35222 7.93122 3.26421 7.83407 3.14649 7.7905C3.12201 7.73686 2.99735 7.65416 2.86256 7.5632C2.7953 7.51738 2.72541 7.46979 2.66399 7.42346C2.63329 7.40028 2.60467 7.37744 2.57963 7.35524L2.5704 7.34695C2.56712 7.34402 2.57006 7.34511 2.56965 7.34399L2.5722 7.34022C2.57413 7.3376 2.5765 7.33485 2.57936 7.33185C2.57066 7.34066 2.56083 7.34871 2.54984 7.35606C2.55386 7.34983 2.5591 7.34436 2.56554 7.3397C2.55089 7.34147 2.53436 7.33763 2.52532 7.33576C2.51583 7.33359 2.51263 7.3325 2.51266 7.33182C2.51613 7.3307 2.53288 7.32828 2.55289 7.32023C2.55431 7.31846 2.55503 7.31629 2.55575 7.3136L2.55688 7.30911L2.55752 7.30656L2.55786 7.30524L2.55804 7.30456L2.56709 7.29813C2.66428 7.22906 2.74879 7.167 2.8266 7.11013C2.97773 7.00013 3.10472 6.91186 3.24964 6.82936C3.19895 6.85723 3.10208 6.89575 3.22015 6.81104C3.24146 6.81641 3.32779 6.75502 3.41949 6.69027C3.51115 6.62545 3.60941 6.55957 3.65215 6.55179C3.78264 6.46644 4.21648 6.2048 4.0443 6.25922C4.13119 6.23258 4.52413 6.00905 4.30453 6.16174C4.43605 6.08492 4.56643 6.01469 4.65489 5.95082L4.47988 6.04097C4.69809 5.90531 4.87561 5.8151 5.02953 5.7293C5.18367 5.64388 5.3159 5.56628 5.45211 5.4711L5.27583 5.54762C5.54378 5.3984 5.76759 5.27253 5.89677 5.25087L5.62776 5.41267C5.73916 5.35163 5.83949 5.29663 5.93311 5.2453C6.02723 5.19523 6.11464 5.14873 6.19975 5.10349C6.36835 5.01076 6.52773 4.9231 6.71279 4.82133L6.57616 4.88611C6.80751 4.75045 7.5522 4.36054 8.3228 4.03892C8.51649 3.96118 8.70984 3.88358 8.89456 3.80944C8.91572 3.80057 8.93692 3.79227 8.95813 3.78425C9.03488 3.91563 9.11287 4.04531 9.20642 4.17121C9.20175 4.17978 9.19851 4.17464 9.19136 4.17135C9.23854 4.22196 9.27021 4.27288 9.31446 4.31815C9.31623 4.33685 9.30769 4.34722 9.30305 4.35578C9.30769 4.34722 9.36147 4.41404 9.414 4.48386C9.44029 4.51874 9.46613 4.55446 9.48563 4.58172C9.5051 4.60898 9.51794 4.62798 9.51776 4.62968L9.55323 4.61374C9.59285 4.66748 9.52695 4.65168 9.57127 4.69685C9.63202 4.6889 9.62659 4.78271 9.66384 4.78533C9.65985 4.78713 9.67619 4.81242 9.66049 4.81949C9.69122 4.81198 9.68452 4.84121 9.70229 4.85273C9.7134 4.85413 9.70685 4.84417 9.7114 4.83547L9.74613 4.86538C9.74809 4.88397 9.73573 4.89621 9.72202 4.88285C9.77991 4.98047 10.0808 5.4365 10.168 5.52692C10.1774 5.50275 10.1419 5.48008 10.163 5.45044C10.1992 5.46634 10.1859 5.49232 10.212 5.49313C10.1752 5.53008 10.2442 5.5568 10.2141 5.60387L10.2448 5.59606L10.2391 5.61835C10.351 5.71696 10.2712 5.63688 10.3418 5.74178C10.3899 5.79803 10.4456 5.80449 10.4575 5.84494C10.4541 5.83994 10.4596 5.81761 10.4775 5.82883C10.4575 5.84494 10.5237 5.85949 10.5071 5.88056C10.5211 5.89372 10.5547 5.94358 10.5723 5.90877C10.5635 5.92621 10.5901 5.97278 10.5576 5.95534C10.5678 5.97033 10.574 5.98706 10.5886 5.99335L10.5828 5.96962C10.6244 6.01568 10.6215 6.05664 10.6728 6.07159L10.6709 6.0462C10.695 6.07418 10.7159 6.09716 10.6951 6.127L10.6631 6.10273C10.7008 6.15062 10.725 6.17856 10.7715 6.20905L10.7613 6.19417C10.8303 6.22693 11.0606 6.47935 11.1344 6.50264L11.1403 6.46657L11.191 6.49472C11.1876 6.48979 11.1017 6.52222 11.106 6.51348C11.1464 6.56348 11.2896 6.73378 11.4113 6.88439C10.7234 6.86733 9.88227 6.84615 9.12805 6.86971L8.48421 6.79571L8.38991 6.80268C8.38991 6.80268 7.35004 7.67466 8.66623 7.86412L8.64517 7.88941L8.90552 7.8868C9.21783 7.90005 9.36237 7.87099 9.34109 7.89628L8.91316 7.89213C9.22695 7.90026 9.0078 7.91314 8.88797 7.92721C9.01899 7.92997 9.14616 7.93333 9.25044 7.94139C9.31232 7.9318 9.20503 7.93075 9.15622 7.92514C9.32505 7.9166 9.5602 7.89336 9.76571 7.90556C10.0871 7.90872 9.78609 7.94669 10.1611 7.95036C10.6069 7.95587 11.0494 7.96188 11.4907 7.96786C11.464 8.00777 11.4356 8.04275 11.4137 8.08265C11.3959 8.09003 11.3823 8.08639 11.372 8.08534C11.3926 8.08748 11.1916 8.34411 11.1849 8.34595L11.2146 8.36961C11.1769 8.41869 11.1667 8.36033 11.1393 8.41053C11.171 8.45717 11.076 8.48249 11.088 8.51349C11.0846 8.51084 11.066 8.53205 11.0528 8.52162C11.0723 8.54409 11.0408 8.54799 11.0362 8.56594C11.0391 8.57536 11.0465 8.56693 11.0569 8.56788L11.0408 8.6054C11.0231 8.61288 11.0062 8.60673 11.014 8.59143C10.94 8.66921 10.6056 9.05688 10.5497 9.15582C10.5774 9.15582 10.586 9.11993 10.6236 9.12765C10.622 9.16191 10.591 9.15936 10.6004 9.18074C10.5494 9.16266 10.5498 9.2269 10.4914 9.21745L10.5111 9.23975L10.4868 9.24223C10.4326 9.36382 10.481 9.27408 10.4043 9.36416C10.3673 9.42082 10.3825 9.4679 10.347 9.49026C10.3507 9.48595 10.375 9.48337 10.3708 9.50135C10.347 9.49027 10.3584 9.54842 10.331 9.54169C10.3234 9.55716 10.287 9.60002 10.3285 9.60332C10.3078 9.60172 10.2716 9.63775 10.2765 9.60611C10.2655 9.61899 10.2513 9.62936 10.2507 9.64312L10.272 9.63096C10.2425 9.67909 10.2007 9.68969 10.2058 9.73589L10.2304 9.72637C10.212 9.75472 10.1973 9.77878 10.1596 9.77137L10.1712 9.73789C10.1384 9.78347 10.12 9.81186 10.1079 9.85904L10.1187 9.84612C10.1127 9.91206 9.9519 10.1779 9.95721 10.2447L9.9954 10.2382L9.98712 10.288C9.99069 10.2836 9.92505 10.2245 9.93541 10.2252C9.87741 10.308 9.58596 10.7442 9.5167 10.8114C9.48179 10.8345 9.47557 10.7952 9.47215 10.7927C9.45415 10.8351 9.48544 10.8233 9.4607 10.8538C9.45027 10.86 9.44364 10.8413 9.44379 10.8345C9.4366 10.85 9.41924 10.8582 9.42944 10.8656C9.45038 10.8532 9.47419 10.8775 9.49829 10.8812L9.4746 10.9105C9.39871 10.8851 9.31142 10.8501 9.22634 10.8275C9.16812 10.8188 9.26223 10.8505 9.29899 10.8738C9.18274 10.8391 9.0653 10.808 8.9498 10.7704ZM20.8742 8.10135C20.8233 8.17643 20.7676 8.25353 20.7079 8.32029C20.5276 8.53253 20.6603 8.30988 20.4486 8.55489C19.8746 9.18883 19.2055 9.73075 18.4596 10.1712C17.7123 10.61 16.8923 10.9506 16.0157 11.1897C15.9724 11.1901 16.0202 11.1779 16.0693 11.16C15.9362 11.1991 15.8058 11.2339 15.677 11.2652C15.7087 11.2172 15.735 11.1779 15.7527 11.1525L15.7521 11.1599C15.8943 10.9416 16.2126 10.5091 16.3472 10.2756C16.3922 10.2542 16.4219 10.2049 16.4536 10.1734C16.4307 10.1877 16.4215 10.1724 16.4337 10.1577C16.516 10.0527 16.4253 10.1421 16.4977 10.0292C16.5712 9.89316 16.953 9.43401 17.0544 9.33581C17.0702 9.25865 17.1493 9.19977 17.1753 9.13077L17.1777 9.1409C17.2141 9.07207 17.5135 8.74198 17.5596 8.66441L17.5479 8.67128C17.5791 8.59776 17.6041 8.62662 17.6527 8.58423C17.6151 8.56965 17.6389 8.50469 17.6525 8.48283L17.659 8.4882C17.6778 8.45414 17.7045 8.36665 17.7407 8.31362L17.7568 8.32712C17.7715 8.2728 17.8427 8.19917 17.8649 8.16784C17.8997 8.13201 17.9513 8.08935 17.9991 8.04027C18.4523 8.02789 20.504 8.03088 20.9172 8.03523C20.9152 8.03867 20.9133 8.04193 20.9113 8.0454C20.8992 8.06379 20.8867 8.08245 20.8742 8.10135ZM20.9405 8.03558C20.9439 8.03561 20.9472 8.03568 20.9502 8.03571C20.9458 8.03935 20.9428 8.03921 20.9405 8.03558Z" fill="#AA7859"/>
</svg>
