<svg width="50" height="46" viewBox="0 0 50 46" fill="none" xmlns="http://www.w3.org/2000/svg">
<path d="M46.3784 8.67576H11.0128L9.75675 2.1244C9.52079 0.893452 8.43478 0 7.17451 0H0.855807C0.383137 0 0 0.380977 0 0.850981C0 1.32098 0.383137 1.70196 0.855807 1.70196H7.17451C7.61417 1.70196 7.99304 2.01363 8.07537 2.44313L13.5068 30.7738L12.3093 32.9672C11.6345 34.2033 11.6634 35.6628 12.3867 36.8714C13.1099 38.0802 14.3861 38.8017 15.8005 38.8017H17.2546C15.8737 39.3532 14.8982 40.6962 14.8982 42.2665C14.8982 44.3285 16.5792 46 18.6528 46C20.7265 46 22.4075 44.3285 22.4075 42.2665C22.4075 40.6962 21.432 39.3532 20.0511 38.8017H37.9536C36.5727 39.3532 35.5972 40.6962 35.5972 42.2665C35.5972 44.3285 37.2782 46 39.3519 46C41.4255 46 43.1065 44.3285 43.1065 42.2665C43.1065 40.6962 42.131 39.3532 40.7501 38.8017H44.1314C44.604 38.8017 44.9872 38.4207 44.9872 37.9507C44.9872 37.4808 44.604 37.0997 44.1314 37.0997H15.8006C14.9956 37.0997 14.2693 36.689 13.8577 36.0011C13.4461 35.3133 13.4296 34.4826 13.8137 33.7792L14.914 31.7637H42.0209C43.6485 31.7637 45.0844 30.6732 45.5125 29.1118L49.8704 13.2215C50.1696 12.1303 49.9452 10.9889 49.2546 10.0901C48.5641 9.19126 47.5158 8.67576 46.3784 8.67576ZM37.5006 23.0889H30.5981V17.5517H38.4835L37.5006 23.0889ZM40.2584 17.5517H46.9086L45.39 23.0889H39.2756L40.2584 17.5517ZM15.1128 30.0617L14.1023 24.7909H20.4747L21.4102 30.0617H15.1128ZM28.8501 17.5517V23.0889H21.9476L20.9647 17.5517H28.8501ZM20.6626 15.8497L19.6914 10.3778H28.8501V15.8497H20.6626ZM20.1726 23.0889H13.776L12.7144 17.5517H19.1898L20.1726 23.0889ZM22.2496 24.7908H28.8501V30.0617H23.1852L22.2496 24.7908ZM30.5981 24.7908H37.1986L36.263 30.0617H30.5981V24.7908ZM30.5981 15.8497V10.3778H39.7568L38.7856 15.8497H30.5981ZM17.9165 10.3778L18.8877 15.8497H12.3881L11.3391 10.3778H17.9165ZM43.861 28.664C43.6354 29.487 42.8787 30.0617 42.0209 30.0617H38.0379L38.9734 24.7909H44.9232L43.861 28.664ZM48.2189 12.7738L47.3753 15.8497H40.5605L41.5317 10.3777H46.3784C46.9779 10.3777 47.5304 10.6494 47.8944 11.1232C48.2584 11.5971 48.3766 12.1987 48.2189 12.7738Z" fill="#375A54"/>
</svg>
