<svg width="25" height="25" viewBox="0 0 25 25" fill="none" xmlns="http://www.w3.org/2000/svg">
<path d="M8.638 24.264H4.662C2.0912 24.264 0 22.1724 0 19.602V4.6656C0 2.0928 2.0916 0 4.662 0H8.6376C9.6756 0 10.5168 0.841599 10.5168 1.8792C10.5168 2.9172 9.6752 3.7584 8.6376 3.7584H4.662C4.1636 3.7584 3.7584 4.1652 3.7584 4.6656V19.602C3.7584 20.1 4.1636 20.5056 4.662 20.5056H8.6376C9.6756 20.5056 10.5168 21.3472 10.5168 22.3848C10.5172 23.4228 9.676 24.264 8.638 24.264Z" fill="#A2D6BB"/>
<path d="M23.9172 13.3208C23.9476 13.284 23.9808 13.2496 24.0084 13.2104C24.058 13.14 24.0976 13.0636 24.1372 12.9864C24.1552 12.9516 24.1776 12.9192 24.1932 12.8832C24.2332 12.7912 24.262 12.6936 24.2872 12.5944C24.2936 12.5692 24.3048 12.546 24.31 12.5208C24.3364 12.3956 24.3508 12.2664 24.3508 12.1336C24.3508 12.0008 24.336 11.8712 24.31 11.7464C24.3048 11.7216 24.2936 11.6984 24.2876 11.6736C24.2624 11.574 24.2336 11.4764 24.1932 11.3836C24.1776 11.348 24.1552 11.3156 24.1376 11.2808C24.098 11.2036 24.058 11.1268 24.0084 11.0564C23.9812 11.0176 23.9484 10.9836 23.918 10.9472C23.868 10.886 23.8176 10.826 23.7604 10.7716C23.7496 10.7612 23.7416 10.7484 23.7304 10.7384L17.8108 5.39596C17.0408 4.70076 15.852 4.76116 15.1568 5.53196C14.4616 6.30236 14.5224 7.49076 15.2928 8.18596L17.5844 10.254H9.07158C8.03358 10.254 7.19238 11.0956 7.19238 12.1332C7.19238 13.1712 8.03398 14.0124 9.07158 14.0124H17.584L15.2928 16.08C14.5224 16.7756 14.4612 17.964 15.1568 18.7344C15.528 19.1456 16.0392 19.3548 16.5524 19.3548C17.0008 19.3548 17.4512 19.1952 17.8108 18.8708L23.7304 13.5288C23.742 13.5184 23.7496 13.5056 23.7608 13.4948C23.8176 13.4412 23.8672 13.3812 23.9172 13.3208Z" fill="#A2D6BB"/>
</svg>
