<svg width="31" height="30" viewBox="0 0 31 30" fill="none" xmlns="http://www.w3.org/2000/svg">
<path d="M4.15982 24.3716L4.1597 24.3715C2.01657 21.844 0.724609 18.5735 0.724609 15C0.724609 6.99194 7.21655 0.5 15.2246 0.5C23.2327 0.5 29.7246 6.99194 29.7246 15C29.7246 18.5736 28.4326 21.844 26.2895 24.3715L26.2894 24.3716C26.1528 24.5327 26.0126 24.6909 25.869 24.8461C25.5687 25.1703 25.2539 25.4809 24.9256 25.7768H5.52361C5.19526 25.4809 4.88042 25.1702 4.5801 24.846C4.43652 24.6908 4.29636 24.5327 4.15982 24.3716Z" fill="#A2D6BB" stroke="#375A54"/>
<path d="M15.2242 20.9587C18.9537 20.9587 22.2988 22.9847 24.4563 26.1814C21.9483 28.2547 18.732 29.5 15.2242 29.5C11.7163 29.5 8.50004 28.2547 5.99204 26.1814C8.14959 22.9847 11.4947 20.9587 15.2242 20.9587Z" fill="#375A54" stroke="#375A54"/>
<path d="M20.7827 11.8934C20.7827 14.9632 18.2941 17.4517 15.2244 17.4517C12.1546 17.4517 9.66602 14.9632 9.66602 11.8934C9.66602 8.82358 12.1546 6.33502 15.2244 6.33502C18.2941 6.33502 20.7827 8.82358 20.7827 11.8934Z" fill="#375A54" stroke="#375A54"/>
</svg>
